<?xml version="1.0" encoding="UTF-8" standalone="no"?>
<!-- Created with Inkscape (http://www.inkscape.org/) -->
<svg
   xmlns:dc="http://purl.org/dc/elements/1.1/"
   xmlns:cc="http://web.resource.org/cc/"
   xmlns:rdf="http://www.w3.org/1999/02/22-rdf-syntax-ns#"
   xmlns:svg="http://www.w3.org/2000/svg"
   xmlns="http://www.w3.org/2000/svg"
   xmlns:sodipodi="http://sodipodi.sourceforge.net/DTD/sodipodi-0.dtd"
   xmlns:inkscape="http://www.inkscape.org/namespaces/inkscape"
   width="351.24774"
   height="301.24808"
   id="svg3491"
   sodipodi:version="0.32"
   inkscape:version="0.45"
   version="1.0"
   sodipodi:docbase="/home/cmr/Desktop"
   sodipodi:docname="Bg-start.svg"
   inkscape:output_extension="org.inkscape.output.svg.inkscape"
   sodipodi:modified="true">
  <defs
     id="defs3493" />
  <sodipodi:namedview
     id="base"
     pagecolor="white"
     bordercolor="#666666"
     borderopacity="1.0"
     inkscape:pageopacity="1"
     inkscape:pageshadow="2"
     inkscape:zoom="1.5494505"
     inkscape:cx="320"
     inkscape:cy="213.53901"
     inkscape:current-layer="layer1"
     inkscape:document-units="px"
     inkscape:window-width="1267"
     inkscape:window-height="994"
     inkscape:window-x="0"
     inkscape:window-y="25" />
  <metadata
     id="metadata3496">
    <rdf:RDF>
      <cc:Work
         rdf:about="">
        <dc:format>image/svg+xml</dc:format>
        <dc:type
           rdf:resource="http://purl.org/dc/dcmitype/StillImage" />
      </cc:Work>
    </rdf:RDF>
  </metadata>
  <g
     id="layer1"
     inkscape:label="Layer 1"
     inkscape:groupmode="layer"
     transform="translate(-228.1212,290.9075)">
    <polygon
       transform="matrix(1.249992,0,0,-1.249992,32.49749,628.4616)"
       points="157,495 437,495 437,735 157,735 157,495 "
       style="font-style:normal;font-variant:normal;font-weight:normal;font-stretch:normal;letter-spacing:normal;word-spacing:normal;text-anchor:start;fill:#e8e8e8;fill-opacity:1;stroke:black;stroke-width:1;stroke-linecap:butt;stroke-linejoin:miter;stroke-miterlimit:10.43299961;stroke-dasharray:none;stroke-dashoffset:0;stroke-opacity:1"
       id="polygon3890" />
    <polygon
       transform="matrix(1.249992,0,0,-1.249992,32.49749,628.4616)"
       points="167,505 177,605 187,505 167,505 "
       style="font-style:normal;font-variant:normal;font-weight:normal;font-stretch:normal;letter-spacing:normal;word-spacing:normal;text-anchor:start;fill:#7f7f7f;fill-opacity:1;fill-rule:nonzero;stroke:#7f7f7f;stroke-width:0;stroke-linecap:butt;stroke-linejoin:miter;stroke-miterlimit:10.43299961;stroke-dasharray:none;stroke-dashoffset:0;stroke-opacity:1"
       id="polygon3892" />
    <polygon
       transform="matrix(1.249992,0,0,-1.249992,32.49749,628.4616)"
       points="207,505 217,605 227,505 207,505 "
       style="font-style:normal;font-variant:normal;font-weight:normal;font-stretch:normal;letter-spacing:normal;word-spacing:normal;text-anchor:start;fill:#7f7f7f;fill-opacity:1;fill-rule:nonzero;stroke:#7f7f7f;stroke-width:0;stroke-linecap:butt;stroke-linejoin:miter;stroke-miterlimit:10.43299961;stroke-dasharray:none;stroke-dashoffset:0;stroke-opacity:1"
       id="polygon3894" />
    <polygon
       transform="matrix(1.249992,0,0,-1.249992,32.49749,628.4616)"
       points="247,505 257,605 267,505 247,505 "
       style="font-style:normal;font-variant:normal;font-weight:normal;font-stretch:normal;letter-spacing:normal;word-spacing:normal;text-anchor:start;fill:#7f7f7f;fill-opacity:1;fill-rule:nonzero;stroke:#7f7f7f;stroke-width:0;stroke-linecap:butt;stroke-linejoin:miter;stroke-miterlimit:10.43299961;stroke-dasharray:none;stroke-dashoffset:0;stroke-opacity:1"
       id="polygon3896" />
    <polygon
       transform="matrix(1.249992,0,0,-1.249992,32.49749,628.4616)"
       points="167,505 177,605 187,505 197,605 207,505 217,605 227,505 237,605 247,505 257,605 267,505 277,605 287,505 167,505 "
       style="font-style:normal;font-variant:normal;font-weight:normal;font-stretch:normal;letter-spacing:normal;word-spacing:normal;text-anchor:start;fill:none;fill-opacity:1;stroke:black;stroke-width:1;stroke-linecap:butt;stroke-linejoin:miter;stroke-miterlimit:10.43299961;stroke-dasharray:none;stroke-dashoffset:0;stroke-opacity:1"
       id="polygon3898" />
    <polygon
       transform="matrix(1.249992,0,0,-1.249992,32.49749,628.4616)"
       points="307,505 317,605 327,505 307,505 "
       style="font-style:normal;font-variant:normal;font-weight:normal;font-stretch:normal;letter-spacing:normal;word-spacing:normal;text-anchor:start;fill:#7f7f7f;fill-opacity:1;fill-rule:nonzero;stroke:#7f7f7f;stroke-width:0;stroke-linecap:butt;stroke-linejoin:miter;stroke-miterlimit:10.43299961;stroke-dasharray:none;stroke-dashoffset:0;stroke-opacity:1"
       id="polygon3900" />
    <polygon
       transform="matrix(1.249992,0,0,-1.249992,32.49749,628.4616)"
       points="347,505 357,605 367,505 347,505 "
       style="font-style:normal;font-variant:normal;font-weight:normal;font-stretch:normal;letter-spacing:normal;word-spacing:normal;text-anchor:start;fill:#7f7f7f;fill-opacity:1;fill-rule:nonzero;stroke:#7f7f7f;stroke-width:0;stroke-linecap:butt;stroke-linejoin:miter;stroke-miterlimit:10.43299961;stroke-dasharray:none;stroke-dashoffset:0;stroke-opacity:1"
       id="polygon3902" />
    <polygon
       transform="matrix(1.249992,0,0,-1.249992,32.49749,628.4616)"
       points="387,505 397,605 407,505 387,505 "
       style="font-style:normal;font-variant:normal;font-weight:normal;font-stretch:normal;letter-spacing:normal;word-spacing:normal;text-anchor:start;fill:#7f7f7f;fill-opacity:1;fill-rule:nonzero;stroke:#7f7f7f;stroke-width:0;stroke-linecap:butt;stroke-linejoin:miter;stroke-miterlimit:10.43299961;stroke-dasharray:none;stroke-dashoffset:0;stroke-opacity:1"
       id="polygon3904" />
    <polygon
       transform="matrix(1.249992,0,0,-1.249992,32.49749,628.4616)"
       points="307,505 317,605 327,505 337,605 347,505 357,605 367,505 377,605 387,505 397,605 407,505 417,605 427,505 307,505 "
       style="font-style:normal;font-variant:normal;font-weight:normal;font-stretch:normal;letter-spacing:normal;word-spacing:normal;text-anchor:start;fill:none;fill-opacity:1;stroke:black;stroke-width:1;stroke-linecap:butt;stroke-linejoin:miter;stroke-miterlimit:10.43299961;stroke-dasharray:none;stroke-dashoffset:0;stroke-opacity:1"
       id="polygon3906" />
    <polygon
       transform="matrix(1.249992,0,0,-1.249992,32.49749,628.4616)"
       points="287,725 277,625 267,725 287,725 "
       style="font-style:normal;font-variant:normal;font-weight:normal;font-stretch:normal;letter-spacing:normal;word-spacing:normal;text-anchor:start;fill:#7f7f7f;fill-opacity:1;fill-rule:nonzero;stroke:#7f7f7f;stroke-width:0;stroke-linecap:butt;stroke-linejoin:miter;stroke-miterlimit:10.43299961;stroke-dasharray:none;stroke-dashoffset:0;stroke-opacity:1"
       id="polygon3908" />
    <polygon
       transform="matrix(1.249992,0,0,-1.249992,32.49749,628.4616)"
       points="247,725 237,625 227,725 247,725 "
       style="font-style:normal;font-variant:normal;font-weight:normal;font-stretch:normal;letter-spacing:normal;word-spacing:normal;text-anchor:start;fill:#7f7f7f;fill-opacity:1;fill-rule:nonzero;stroke:#7f7f7f;stroke-width:0;stroke-linecap:butt;stroke-linejoin:miter;stroke-miterlimit:10.43299961;stroke-dasharray:none;stroke-dashoffset:0;stroke-opacity:1"
       id="polygon3910" />
    <polygon
       transform="matrix(1.249992,0,0,-1.249992,32.49749,628.4616)"
       points="207,725 197,625 187,725 207,725 "
       style="font-style:normal;font-variant:normal;font-weight:normal;font-stretch:normal;letter-spacing:normal;word-spacing:normal;text-anchor:start;fill:#7f7f7f;fill-opacity:1;fill-rule:nonzero;stroke:#7f7f7f;stroke-width:0;stroke-linecap:butt;stroke-linejoin:miter;stroke-miterlimit:10.43299961;stroke-dasharray:none;stroke-dashoffset:0;stroke-opacity:1"
       id="polygon3912" />
    <polygon
       transform="matrix(1.249992,0,0,-1.249992,32.49749,628.4616)"
       points="287,725 277,625 267,725 257,625 247,725 237,625 227,725 217,625 207,725 197,625 187,725 177,625 167,725 287,725 "
       style="font-style:normal;font-variant:normal;font-weight:normal;font-stretch:normal;letter-spacing:normal;word-spacing:normal;text-anchor:start;fill:none;fill-opacity:1;stroke:black;stroke-width:1;stroke-linecap:butt;stroke-linejoin:miter;stroke-miterlimit:10.43299961;stroke-dasharray:none;stroke-dashoffset:0;stroke-opacity:1"
       id="polygon3914" />
    <polygon
       transform="matrix(1.249992,0,0,-1.249992,32.49749,628.4616)"
       points="427,725 417,625 407,725 427,725 "
       style="font-style:normal;font-variant:normal;font-weight:normal;font-stretch:normal;letter-spacing:normal;word-spacing:normal;text-anchor:start;fill:#7f7f7f;fill-opacity:1;fill-rule:nonzero;stroke:#7f7f7f;stroke-width:0;stroke-linecap:butt;stroke-linejoin:miter;stroke-miterlimit:10.43299961;stroke-dasharray:none;stroke-dashoffset:0;stroke-opacity:1"
       id="polygon3916" />
    <polygon
       transform="matrix(1.249992,0,0,-1.249992,32.49749,628.4616)"
       points="387,725 377,625 367,725 387,725 "
       style="font-style:normal;font-variant:normal;font-weight:normal;font-stretch:normal;letter-spacing:normal;word-spacing:normal;text-anchor:start;fill:#7f7f7f;fill-opacity:1;fill-rule:nonzero;stroke:#7f7f7f;stroke-width:0;stroke-linecap:butt;stroke-linejoin:miter;stroke-miterlimit:10.43299961;stroke-dasharray:none;stroke-dashoffset:0;stroke-opacity:1"
       id="polygon3918" />
    <polygon
       transform="matrix(1.249992,0,0,-1.249992,32.49749,628.4616)"
       points="347,725 337,625 327,725 347,725 "
       style="font-style:normal;font-variant:normal;font-weight:normal;font-stretch:normal;letter-spacing:normal;word-spacing:normal;text-anchor:start;fill:#7f7f7f;fill-opacity:1;fill-rule:nonzero;stroke:#7f7f7f;stroke-width:0;stroke-linecap:butt;stroke-linejoin:miter;stroke-miterlimit:10.43299961;stroke-dasharray:none;stroke-dashoffset:0;stroke-opacity:1"
       id="polygon3920" />
    <polygon
       transform="matrix(1.249992,0,0,-1.249992,32.49749,628.4616)"
       points="427,725 417,625 407,725 397,625 387,725 377,625 367,725 357,625 347,725 337,625 327,725 317,625 307,725 427,725 "
       style="font-style:normal;font-variant:normal;font-weight:normal;font-stretch:normal;letter-spacing:normal;word-spacing:normal;text-anchor:start;fill:none;fill-opacity:1;stroke:black;stroke-width:1;stroke-linecap:butt;stroke-linejoin:miter;stroke-miterlimit:10.43299961;stroke-dasharray:none;stroke-dashoffset:0;stroke-opacity:1"
       id="polygon3922" />
    <polygon
       transform="matrix(1.249992,0,0,-1.249992,32.49749,628.4616)"
       points="167,505 287,505 287,725 167,725 167,505 "
       style="font-style:normal;font-variant:normal;font-weight:normal;font-stretch:normal;letter-spacing:normal;word-spacing:normal;text-anchor:start;fill:none;fill-opacity:1;stroke:black;stroke-width:1;stroke-linecap:butt;stroke-linejoin:miter;stroke-miterlimit:10.43299961;stroke-dasharray:none;stroke-dashoffset:0;stroke-opacity:1"
       id="polygon3924" />
    <polygon
       transform="matrix(1.249992,0,0,-1.249992,32.49749,628.4616)"
       points="307,505 427,505 427,725 307,725 307,505 "
       style="font-style:normal;font-variant:normal;font-weight:normal;font-stretch:normal;letter-spacing:normal;word-spacing:normal;text-anchor:start;fill:none;fill-opacity:1;stroke:black;stroke-width:1;stroke-linecap:butt;stroke-linejoin:miter;stroke-miterlimit:10.43299961;stroke-dasharray:none;stroke-dashoffset:0;stroke-opacity:1"
       id="polygon3926" />
    <text
       style="font-size:9.9999361px;font-style:normal;font-variant:normal;font-weight:normal;font-stretch:normal;letter-spacing:normal;word-spacing:normal;text-anchor:start;fill:black;fill-opacity:1;stroke:none;stroke-linecap:butt;stroke-linejoin:miter;stroke-miterlimit:10.43299961;stroke-dasharray:none;stroke-dashoffset:0;stroke-opacity:1;font-family:&quot;Helvetica&quot;, sans-serif"
       id="text3928"
       x="248.18359"
       y="7.2155676">12</text>
    <text
       style="font-size:9.9999361px;font-style:normal;font-variant:normal;font-weight:normal;font-stretch:normal;letter-spacing:normal;word-spacing:normal;text-anchor:start;fill:black;fill-opacity:1;stroke:none;stroke-linecap:butt;stroke-linejoin:miter;stroke-miterlimit:10.43299961;stroke-dasharray:none;stroke-dashoffset:0;stroke-opacity:1;font-family:&quot;Helvetica&quot;, sans-serif"
       id="text3930"
       x="273.1835"
       y="7.2155676">11</text>
    <text
       style="font-size:9.9999361px;font-style:normal;font-variant:normal;font-weight:normal;font-stretch:normal;letter-spacing:normal;word-spacing:normal;text-anchor:start;fill:black;fill-opacity:1;stroke:none;stroke-linecap:butt;stroke-linejoin:miter;stroke-miterlimit:10.43299961;stroke-dasharray:none;stroke-dashoffset:0;stroke-opacity:1;font-family:&quot;Helvetica&quot;, sans-serif"
       id="text3932"
       x="298.18329"
       y="7.2155676">10</text>
    <text
       style="font-size:9.9999361px;font-style:normal;font-variant:normal;font-weight:normal;font-stretch:normal;letter-spacing:normal;word-spacing:normal;text-anchor:start;fill:black;fill-opacity:1;stroke:none;stroke-linecap:butt;stroke-linejoin:miter;stroke-miterlimit:10.43299961;stroke-dasharray:none;stroke-dashoffset:0;stroke-opacity:1;font-family:&quot;Helvetica&quot;, sans-serif"
       id="text3934"
       x="325.97058"
       y="7.2155676">9</text>
    <text
       style="font-size:9.9999361px;font-style:normal;font-variant:normal;font-weight:normal;font-stretch:normal;letter-spacing:normal;word-spacing:normal;text-anchor:start;fill:black;fill-opacity:1;stroke:none;stroke-linecap:butt;stroke-linejoin:miter;stroke-miterlimit:10.43299961;stroke-dasharray:none;stroke-dashoffset:0;stroke-opacity:1;font-family:&quot;Helvetica&quot;, sans-serif"
       id="text3936"
       x="350.97049"
       y="7.2155676">8</text>
    <text
       style="font-size:9.9999361px;font-style:normal;font-variant:normal;font-weight:normal;font-stretch:normal;letter-spacing:normal;word-spacing:normal;text-anchor:start;fill:black;fill-opacity:1;stroke:none;stroke-linecap:butt;stroke-linejoin:miter;stroke-miterlimit:10.43299961;stroke-dasharray:none;stroke-dashoffset:0;stroke-opacity:1;font-family:&quot;Helvetica&quot;, sans-serif"
       id="text3938"
       x="375.97031"
       y="7.2155676">7</text>
    <text
       style="font-size:9.9999361px;font-style:normal;font-variant:normal;font-weight:normal;font-stretch:normal;letter-spacing:normal;word-spacing:normal;text-anchor:start;fill:black;fill-opacity:1;stroke:none;stroke-linecap:butt;stroke-linejoin:miter;stroke-miterlimit:10.43299961;stroke-dasharray:none;stroke-dashoffset:0;stroke-opacity:1;font-family:&quot;Helvetica&quot;, sans-serif"
       id="text3940"
       x="425.97"
       y="7.2155676">6</text>
    <text
       style="font-size:9.9999361px;font-style:normal;font-variant:normal;font-weight:normal;font-stretch:normal;letter-spacing:normal;word-spacing:normal;text-anchor:start;fill:black;fill-opacity:1;stroke:none;stroke-linecap:butt;stroke-linejoin:miter;stroke-miterlimit:10.43299961;stroke-dasharray:none;stroke-dashoffset:0;stroke-opacity:1;font-family:&quot;Helvetica&quot;, sans-serif"
       id="text3942"
       x="450.96979"
       y="7.2155676">5</text>
    <text
       style="font-size:9.9999361px;font-style:normal;font-variant:normal;font-weight:normal;font-stretch:normal;letter-spacing:normal;word-spacing:normal;text-anchor:start;fill:black;fill-opacity:1;stroke:none;stroke-linecap:butt;stroke-linejoin:miter;stroke-miterlimit:10.43299961;stroke-dasharray:none;stroke-dashoffset:0;stroke-opacity:1;font-family:&quot;Helvetica&quot;, sans-serif"
       id="text3944"
       x="475.9697"
       y="7.2155676">4</text>
    <text
       style="font-size:9.9999361px;font-style:normal;font-variant:normal;font-weight:normal;font-stretch:normal;letter-spacing:normal;word-spacing:normal;text-anchor:start;fill:black;fill-opacity:1;stroke:none;stroke-linecap:butt;stroke-linejoin:miter;stroke-miterlimit:10.43299961;stroke-dasharray:none;stroke-dashoffset:0;stroke-opacity:1;font-family:&quot;Helvetica&quot;, sans-serif"
       id="text3946"
       x="500.96948"
       y="7.2155676">3</text>
    <text
       style="font-size:9.9999361px;font-style:normal;font-variant:normal;font-weight:normal;font-stretch:normal;letter-spacing:normal;word-spacing:normal;text-anchor:start;fill:black;fill-opacity:1;stroke:none;stroke-linecap:butt;stroke-linejoin:miter;stroke-miterlimit:10.43299961;stroke-dasharray:none;stroke-dashoffset:0;stroke-opacity:1;font-family:&quot;Helvetica&quot;, sans-serif"
       id="text3948"
       x="525.9693"
       y="7.2155676">2</text>
    <text
       style="font-size:9.9999361px;font-style:normal;font-variant:normal;font-weight:normal;font-stretch:normal;letter-spacing:normal;word-spacing:normal;text-anchor:start;fill:black;fill-opacity:1;stroke:none;stroke-linecap:butt;stroke-linejoin:miter;stroke-miterlimit:10.43299961;stroke-dasharray:none;stroke-dashoffset:0;stroke-opacity:1;font-family:&quot;Helvetica&quot;, sans-serif"
       id="text3950"
       x="550.96918"
       y="7.2155676">1</text>
    <text
       style="font-size:9.9999361px;font-style:normal;font-variant:normal;font-weight:normal;font-stretch:normal;letter-spacing:normal;word-spacing:normal;text-anchor:start;fill:black;fill-opacity:1;stroke:none;stroke-linecap:butt;stroke-linejoin:miter;stroke-miterlimit:10.43299961;stroke-dasharray:none;stroke-dashoffset:0;stroke-opacity:1;font-family:&quot;Helvetica&quot;, sans-serif"
       id="text3952"
       x="248.18359"
       y="-280.28262">13</text>
    <text
       style="font-size:9.9999361px;font-style:normal;font-variant:normal;font-weight:normal;font-stretch:normal;letter-spacing:normal;word-spacing:normal;text-anchor:start;fill:black;fill-opacity:1;stroke:none;stroke-linecap:butt;stroke-linejoin:miter;stroke-miterlimit:10.43299961;stroke-dasharray:none;stroke-dashoffset:0;stroke-opacity:1;font-family:&quot;Helvetica&quot;, sans-serif"
       id="text3954"
       x="273.1835"
       y="-280.28262">14</text>
    <text
       style="font-size:9.9999361px;font-style:normal;font-variant:normal;font-weight:normal;font-stretch:normal;letter-spacing:normal;word-spacing:normal;text-anchor:start;fill:black;fill-opacity:1;stroke:none;stroke-linecap:butt;stroke-linejoin:miter;stroke-miterlimit:10.43299961;stroke-dasharray:none;stroke-dashoffset:0;stroke-opacity:1;font-family:&quot;Helvetica&quot;, sans-serif"
       id="text3956"
       x="298.18329"
       y="-280.28262">15</text>
    <text
       style="font-size:9.9999361px;font-style:normal;font-variant:normal;font-weight:normal;font-stretch:normal;letter-spacing:normal;word-spacing:normal;text-anchor:start;fill:black;fill-opacity:1;stroke:none;stroke-linecap:butt;stroke-linejoin:miter;stroke-miterlimit:10.43299961;stroke-dasharray:none;stroke-dashoffset:0;stroke-opacity:1;font-family:&quot;Helvetica&quot;, sans-serif"
       id="text3958"
       x="323.18311"
       y="-280.28262">16</text>
    <text
       style="font-size:9.9999361px;font-style:normal;font-variant:normal;font-weight:normal;font-stretch:normal;letter-spacing:normal;word-spacing:normal;text-anchor:start;fill:black;fill-opacity:1;stroke:none;stroke-linecap:butt;stroke-linejoin:miter;stroke-miterlimit:10.43299961;stroke-dasharray:none;stroke-dashoffset:0;stroke-opacity:1;font-family:&quot;Helvetica&quot;, sans-serif"
       id="text3960"
       x="348.18298"
       y="-280.28262">17</text>
    <text
       style="font-size:9.9999361px;font-style:normal;font-variant:normal;font-weight:normal;font-stretch:normal;letter-spacing:normal;word-spacing:normal;text-anchor:start;fill:black;fill-opacity:1;stroke:none;stroke-linecap:butt;stroke-linejoin:miter;stroke-miterlimit:10.43299961;stroke-dasharray:none;stroke-dashoffset:0;stroke-opacity:1;font-family:&quot;Helvetica&quot;, sans-serif"
       id="text3962"
       x="373.1828"
       y="-280.28262">18</text>
    <text
       style="font-size:9.9999361px;font-style:normal;font-variant:normal;font-weight:normal;font-stretch:normal;letter-spacing:normal;word-spacing:normal;text-anchor:start;fill:black;fill-opacity:1;stroke:none;stroke-linecap:butt;stroke-linejoin:miter;stroke-miterlimit:10.43299961;stroke-dasharray:none;stroke-dashoffset:0;stroke-opacity:1;font-family:&quot;Helvetica&quot;, sans-serif"
       id="text3964"
       x="423.1825"
       y="-280.28262">19</text>
    <text
       style="font-size:9.9999361px;font-style:normal;font-variant:normal;font-weight:normal;font-stretch:normal;letter-spacing:normal;word-spacing:normal;text-anchor:start;fill:black;fill-opacity:1;stroke:none;stroke-linecap:butt;stroke-linejoin:miter;stroke-miterlimit:10.43299961;stroke-dasharray:none;stroke-dashoffset:0;stroke-opacity:1;font-family:&quot;Helvetica&quot;, sans-serif"
       id="text3966"
       x="448.18228"
       y="-280.28262">20</text>
    <text
       style="font-size:9.9999361px;font-style:normal;font-variant:normal;font-weight:normal;font-stretch:normal;letter-spacing:normal;word-spacing:normal;text-anchor:start;fill:black;fill-opacity:1;stroke:none;stroke-linecap:butt;stroke-linejoin:miter;stroke-miterlimit:10.43299961;stroke-dasharray:none;stroke-dashoffset:0;stroke-opacity:1;font-family:&quot;Helvetica&quot;, sans-serif"
       id="text3968"
       x="473.18219"
       y="-280.28262">21</text>
    <text
       style="font-size:9.9999361px;font-style:normal;font-variant:normal;font-weight:normal;font-stretch:normal;letter-spacing:normal;word-spacing:normal;text-anchor:start;fill:black;fill-opacity:1;stroke:none;stroke-linecap:butt;stroke-linejoin:miter;stroke-miterlimit:10.43299961;stroke-dasharray:none;stroke-dashoffset:0;stroke-opacity:1;font-family:&quot;Helvetica&quot;, sans-serif"
       id="text3970"
       x="498.18201"
       y="-280.28262">22</text>
    <text
       style="font-size:9.9999361px;font-style:normal;font-variant:normal;font-weight:normal;font-stretch:normal;letter-spacing:normal;word-spacing:normal;text-anchor:start;fill:black;fill-opacity:1;stroke:none;stroke-linecap:butt;stroke-linejoin:miter;stroke-miterlimit:10.43299961;stroke-dasharray:none;stroke-dashoffset:0;stroke-opacity:1;font-family:&quot;Helvetica&quot;, sans-serif"
       id="text3972"
       x="523.18188"
       y="-280.28262">23</text>
    <text
       style="font-size:9.9999361px;font-style:normal;font-variant:normal;font-weight:normal;font-stretch:normal;letter-spacing:normal;word-spacing:normal;text-anchor:start;fill:black;fill-opacity:1;stroke:none;stroke-linecap:butt;stroke-linejoin:miter;stroke-miterlimit:10.43299961;stroke-dasharray:none;stroke-dashoffset:0;stroke-opacity:1;font-family:&quot;Helvetica&quot;, sans-serif"
       id="text3974"
       x="548.1817"
       y="-280.28262">24</text>
    <path
       d="M 441.24488,-265.28271 L 441.23238,-265.92021 L 441.18238,-266.5577 L 441.09488,-267.1827 L 440.99488,-267.7952 L 440.84488,-268.40769 L 440.68238,-268.99519 L 440.48238,-269.58269 L 440.25738,-270.14518 L 440.00739,-270.69518 L 439.73239,-271.24517 L 439.43239,-271.75767 L 439.10739,-272.27017 L 438.75739,-272.75766 L 438.3949,-273.23266 L 437.9949,-273.68266 L 437.5824,-274.12016 L 437.1449,-274.53265 L 436.69491,-274.93265 L 436.21991,-275.29515 L 435.73241,-275.64515 L 435.21992,-275.97014 L 434.70742,-276.27014 L 434.15742,-276.54514 L 433.60743,-276.79514 L 433.04493,-277.02014 L 432.45743,-277.22014 L 431.86994,-277.38264 L 431.25744,-277.53263 L 430.64495,-277.63263 L 430.01995,-277.72013 L 429.38245,-277.77013 L 428.74496,-277.78263 C 421.845,-277.78263 416.24504,-272.18267 416.24504,-265.28271 C 416.24504,-258.38276 421.845,-252.78279 428.74496,-252.78279 C 435.64491,-252.78279 441.24488,-258.38276 441.24488,-265.28271 z "
       style="font-style:normal;font-variant:normal;font-weight:normal;font-stretch:normal;letter-spacing:normal;word-spacing:normal;text-anchor:start;fill:white;fill-opacity:1;fill-rule:nonzero;stroke:white;stroke-width:0;stroke-linecap:butt;stroke-linejoin:miter;stroke-miterlimit:10.43299961;stroke-dasharray:none;stroke-dashoffset:0;stroke-opacity:1"
       id="path3980" />
    <path
       d="M 441.24488,-265.28271 L 441.23238,-265.92021 L 441.18238,-266.5577 L 441.09488,-267.1827 L 440.99488,-267.7952 L 440.84488,-268.40769 L 440.68238,-268.99519 L 440.48238,-269.58269 L 440.25738,-270.14518 L 440.00739,-270.69518 L 439.73239,-271.24517 L 439.43239,-271.75767 L 439.10739,-272.27017 L 438.75739,-272.75766 L 438.3949,-273.23266 L 437.9949,-273.68266 L 437.5824,-274.12016 L 437.1449,-274.53265 L 436.69491,-274.93265 L 436.21991,-275.29515 L 435.73241,-275.64515 L 435.21992,-275.97014 L 434.70742,-276.27014 L 434.15742,-276.54514 L 433.60743,-276.79514 L 433.04493,-277.02014 L 432.45743,-277.22014 L 431.86994,-277.38264 L 431.25744,-277.53263 L 430.64495,-277.63263 L 430.01995,-277.72013 L 429.38245,-277.77013 L 428.74496,-277.78263 C 421.845,-277.78263 416.24504,-272.18267 416.24504,-265.28271 C 416.24504,-258.38276 421.845,-252.78279 428.74496,-252.78279 C 435.64491,-252.78279 441.24488,-258.38276 441.24488,-265.28271 z "
       style="font-style:normal;font-variant:normal;font-weight:normal;font-stretch:normal;letter-spacing:normal;word-spacing:normal;text-anchor:start;fill:none;fill-opacity:1;stroke:black;stroke-width:1.24999201;stroke-linecap:butt;stroke-linejoin:miter;stroke-miterlimit:10.43299961;stroke-dasharray:none;stroke-dashoffset:0;stroke-opacity:1"
       id="path3982" />
    <path
       d="M 441.24488,-240.28287 L 441.23238,-240.92037 L 441.18238,-241.55786 L 441.09488,-242.18286 L 440.99488,-242.79536 L 440.84488,-243.40785 L 440.68238,-243.99535 L 440.48238,-244.58285 L 440.25738,-245.14534 L 440.00739,-245.69534 L 439.73239,-246.24533 L 439.43239,-246.75783 L 439.10739,-247.27033 L 438.75739,-247.75782 L 438.3949,-248.23282 L 437.9949,-248.68282 L 437.5824,-249.12032 L 437.1449,-249.53281 L 436.69491,-249.93281 L 436.21991,-250.29531 L 435.73241,-250.64531 L 435.21992,-250.9703 L 434.70742,-251.2703 L 434.15742,-251.5453 L 433.60743,-251.7953 L 433.04493,-252.0203 L 432.45743,-252.2203 L 431.86994,-252.3828 L 431.25744,-252.53279 L 430.64495,-252.63279 L 430.01995,-252.72029 L 429.38245,-252.77029 L 428.74496,-252.78279 C 421.845,-252.78279 416.24504,-247.18283 416.24504,-240.28287 C 416.24504,-233.38292 421.845,-227.78295 428.74496,-227.78295 C 435.64491,-227.78295 441.24488,-233.38292 441.24488,-240.28287 z "
       style="font-style:normal;font-variant:normal;font-weight:normal;font-stretch:normal;letter-spacing:normal;word-spacing:normal;text-anchor:start;fill:white;fill-opacity:1;fill-rule:nonzero;stroke:white;stroke-width:0;stroke-linecap:butt;stroke-linejoin:miter;stroke-miterlimit:10.43299961;stroke-dasharray:none;stroke-dashoffset:0;stroke-opacity:1"
       id="path3984" />
    <path
       d="M 441.24488,-240.28287 L 441.23238,-240.92037 L 441.18238,-241.55786 L 441.09488,-242.18286 L 440.99488,-242.79536 L 440.84488,-243.40785 L 440.68238,-243.99535 L 440.48238,-244.58285 L 440.25738,-245.14534 L 440.00739,-245.69534 L 439.73239,-246.24533 L 439.43239,-246.75783 L 439.10739,-247.27033 L 438.75739,-247.75782 L 438.3949,-248.23282 L 437.9949,-248.68282 L 437.5824,-249.12032 L 437.1449,-249.53281 L 436.69491,-249.93281 L 436.21991,-250.29531 L 435.73241,-250.64531 L 435.21992,-250.9703 L 434.70742,-251.2703 L 434.15742,-251.5453 L 433.60743,-251.7953 L 433.04493,-252.0203 L 432.45743,-252.2203 L 431.86994,-252.3828 L 431.25744,-252.53279 L 430.64495,-252.63279 L 430.01995,-252.72029 L 429.38245,-252.77029 L 428.74496,-252.78279 C 421.845,-252.78279 416.24504,-247.18283 416.24504,-240.28287 C 416.24504,-233.38292 421.845,-227.78295 428.74496,-227.78295 C 435.64491,-227.78295 441.24488,-233.38292 441.24488,-240.28287 z "
       style="font-style:normal;font-variant:normal;font-weight:normal;font-stretch:normal;letter-spacing:normal;word-spacing:normal;text-anchor:start;fill:none;fill-opacity:1;stroke:black;stroke-width:1.24999201;stroke-linecap:butt;stroke-linejoin:miter;stroke-miterlimit:10.43299961;stroke-dasharray:none;stroke-dashoffset:0;stroke-opacity:1"
       id="path3986" />
    <path
       d="M 441.24488,-215.28303 L 441.23238,-215.92053 L 441.18238,-216.55802 L 441.09488,-217.18302 L 440.99488,-217.79552 L 440.84488,-218.40801 L 440.68238,-218.99551 L 440.48238,-219.58301 L 440.25738,-220.1455 L 440.00739,-220.6955 L 439.73239,-221.24549 L 439.43239,-221.75799 L 439.10739,-222.27049 L 438.75739,-222.75798 L 438.3949,-223.23298 L 437.9949,-223.68298 L 437.5824,-224.12048 L 437.1449,-224.53297 L 436.69491,-224.93297 L 436.21991,-225.29547 L 435.73241,-225.64547 L 435.21992,-225.97046 L 434.70742,-226.27046 L 434.15742,-226.54546 L 433.60743,-226.79546 L 433.04493,-227.02046 L 432.45743,-227.22046 L 431.86994,-227.38296 L 431.25744,-227.53295 L 430.64495,-227.63295 L 430.01995,-227.72045 L 429.38245,-227.77045 L 428.74496,-227.78295 C 421.845,-227.78295 416.24504,-222.18299 416.24504,-215.28303 C 416.24504,-208.38308 421.845,-202.78311 428.74496,-202.78311 C 435.64491,-202.78311 441.24488,-208.38308 441.24488,-215.28303 z "
       style="font-style:normal;font-variant:normal;font-weight:normal;font-stretch:normal;letter-spacing:normal;word-spacing:normal;text-anchor:start;fill:white;fill-opacity:1;fill-rule:nonzero;stroke:white;stroke-width:0;stroke-linecap:butt;stroke-linejoin:miter;stroke-miterlimit:10.43299961;stroke-dasharray:none;stroke-dashoffset:0;stroke-opacity:1"
       id="path3988" />
    <path
       d="M 441.24488,-215.28303 L 441.23238,-215.92053 L 441.18238,-216.55802 L 441.09488,-217.18302 L 440.99488,-217.79552 L 440.84488,-218.40801 L 440.68238,-218.99551 L 440.48238,-219.58301 L 440.25738,-220.1455 L 440.00739,-220.6955 L 439.73239,-221.24549 L 439.43239,-221.75799 L 439.10739,-222.27049 L 438.75739,-222.75798 L 438.3949,-223.23298 L 437.9949,-223.68298 L 437.5824,-224.12048 L 437.1449,-224.53297 L 436.69491,-224.93297 L 436.21991,-225.29547 L 435.73241,-225.64547 L 435.21992,-225.97046 L 434.70742,-226.27046 L 434.15742,-226.54546 L 433.60743,-226.79546 L 433.04493,-227.02046 L 432.45743,-227.22046 L 431.86994,-227.38296 L 431.25744,-227.53295 L 430.64495,-227.63295 L 430.01995,-227.72045 L 429.38245,-227.77045 L 428.74496,-227.78295 C 421.845,-227.78295 416.24504,-222.18299 416.24504,-215.28303 C 416.24504,-208.38308 421.845,-202.78311 428.74496,-202.78311 C 435.64491,-202.78311 441.24488,-208.38308 441.24488,-215.28303 z "
       style="font-style:normal;font-variant:normal;font-weight:normal;font-stretch:normal;letter-spacing:normal;word-spacing:normal;text-anchor:start;fill:none;fill-opacity:1;stroke:black;stroke-width:1.24999201;stroke-linecap:butt;stroke-linejoin:miter;stroke-miterlimit:10.43299961;stroke-dasharray:none;stroke-dashoffset:0;stroke-opacity:1"
       id="path3990" />
    <path
       d="M 441.24488,-190.28319 L 441.23238,-190.92069 L 441.18238,-191.55818 L 441.09488,-192.18318 L 440.99488,-192.79568 L 440.84488,-193.40817 L 440.68238,-193.99567 L 440.48238,-194.58317 L 440.25738,-195.14566 L 440.00739,-195.69566 L 439.73239,-196.24565 L 439.43239,-196.75815 L 439.10739,-197.27065 L 438.75739,-197.75814 L 438.3949,-198.23314 L 437.9949,-198.68314 L 437.5824,-199.12064 L 437.1449,-199.53313 L 436.69491,-199.93313 L 436.21991,-200.29563 L 435.73241,-200.64563 L 435.21992,-200.97062 L 434.70742,-201.27062 L 434.15742,-201.54562 L 433.60743,-201.79562 L 433.04493,-202.02062 L 432.45743,-202.22062 L 431.86994,-202.38312 L 431.25744,-202.53311 L 430.64495,-202.63311 L 430.01995,-202.72061 L 429.38245,-202.77061 L 428.74496,-202.78311 C 421.845,-202.78311 416.24504,-197.18315 416.24504,-190.28319 C 416.24504,-183.38324 421.845,-177.78327 428.74496,-177.78327 C 435.64491,-177.78327 441.24488,-183.38324 441.24488,-190.28319 z "
       style="font-style:normal;font-variant:normal;font-weight:normal;font-stretch:normal;letter-spacing:normal;word-spacing:normal;text-anchor:start;fill:white;fill-opacity:1;fill-rule:nonzero;stroke:white;stroke-width:0;stroke-linecap:butt;stroke-linejoin:miter;stroke-miterlimit:10.43299961;stroke-dasharray:none;stroke-dashoffset:0;stroke-opacity:1"
       id="path3992" />
    <path
       d="M 441.24488,-190.28319 L 441.23238,-190.92069 L 441.18238,-191.55818 L 441.09488,-192.18318 L 440.99488,-192.79568 L 440.84488,-193.40817 L 440.68238,-193.99567 L 440.48238,-194.58317 L 440.25738,-195.14566 L 440.00739,-195.69566 L 439.73239,-196.24565 L 439.43239,-196.75815 L 439.10739,-197.27065 L 438.75739,-197.75814 L 438.3949,-198.23314 L 437.9949,-198.68314 L 437.5824,-199.12064 L 437.1449,-199.53313 L 436.69491,-199.93313 L 436.21991,-200.29563 L 435.73241,-200.64563 L 435.21992,-200.97062 L 434.70742,-201.27062 L 434.15742,-201.54562 L 433.60743,-201.79562 L 433.04493,-202.02062 L 432.45743,-202.22062 L 431.86994,-202.38312 L 431.25744,-202.53311 L 430.64495,-202.63311 L 430.01995,-202.72061 L 429.38245,-202.77061 L 428.74496,-202.78311 C 421.845,-202.78311 416.24504,-197.18315 416.24504,-190.28319 C 416.24504,-183.38324 421.845,-177.78327 428.74496,-177.78327 C 435.64491,-177.78327 441.24488,-183.38324 441.24488,-190.28319 z "
       style="font-style:normal;font-variant:normal;font-weight:normal;font-stretch:normal;letter-spacing:normal;word-spacing:normal;text-anchor:start;fill:none;fill-opacity:1;stroke:black;stroke-width:1.24999201;stroke-linecap:butt;stroke-linejoin:miter;stroke-miterlimit:10.43299961;stroke-dasharray:none;stroke-dashoffset:0;stroke-opacity:1"
       id="path3994" />
    <path
       d="M 441.24488,-165.28335 L 441.23238,-165.92085 L 441.18238,-166.55834 L 441.09488,-167.18334 L 440.99488,-167.79584 L 440.84488,-168.40833 L 440.68238,-168.99583 L 440.48238,-169.58333 L 440.25738,-170.14582 L 440.00739,-170.69582 L 439.73239,-171.24581 L 439.43239,-171.75831 L 439.10739,-172.27081 L 438.75739,-172.7583 L 438.3949,-173.2333 L 437.9949,-173.6833 L 437.5824,-174.1208 L 437.1449,-174.53329 L 436.69491,-174.93329 L 436.21991,-175.29579 L 435.73241,-175.64579 L 435.21992,-175.97078 L 434.70742,-176.27078 L 434.15742,-176.54578 L 433.60743,-176.79578 L 433.04493,-177.02078 L 432.45743,-177.22078 L 431.86994,-177.38328 L 431.25744,-177.53327 L 430.64495,-177.63327 L 430.01995,-177.72077 L 429.38245,-177.77077 L 428.74496,-177.78327 C 421.845,-177.78327 416.24504,-172.18331 416.24504,-165.28335 C 416.24504,-158.3834 421.845,-152.78343 428.74496,-152.78343 C 435.64491,-152.78343 441.24488,-158.3834 441.24488,-165.28335 z "
       style="font-style:normal;font-variant:normal;font-weight:normal;font-stretch:normal;letter-spacing:normal;word-spacing:normal;text-anchor:start;fill:white;fill-opacity:1;fill-rule:nonzero;stroke:white;stroke-width:0;stroke-linecap:butt;stroke-linejoin:miter;stroke-miterlimit:10.43299961;stroke-dasharray:none;stroke-dashoffset:0;stroke-opacity:1"
       id="path3996" />
    <path
       d="M 441.24488,-165.28335 L 441.23238,-165.92085 L 441.18238,-166.55834 L 441.09488,-167.18334 L 440.99488,-167.79584 L 440.84488,-168.40833 L 440.68238,-168.99583 L 440.48238,-169.58333 L 440.25738,-170.14582 L 440.00739,-170.69582 L 439.73239,-171.24581 L 439.43239,-171.75831 L 439.10739,-172.27081 L 438.75739,-172.7583 L 438.3949,-173.2333 L 437.9949,-173.6833 L 437.5824,-174.1208 L 437.1449,-174.53329 L 436.69491,-174.93329 L 436.21991,-175.29579 L 435.73241,-175.64579 L 435.21992,-175.97078 L 434.70742,-176.27078 L 434.15742,-176.54578 L 433.60743,-176.79578 L 433.04493,-177.02078 L 432.45743,-177.22078 L 431.86994,-177.38328 L 431.25744,-177.53327 L 430.64495,-177.63327 L 430.01995,-177.72077 L 429.38245,-177.77077 L 428.74496,-177.78327 C 421.845,-177.78327 416.24504,-172.18331 416.24504,-165.28335 C 416.24504,-158.3834 421.845,-152.78343 428.74496,-152.78343 C 435.64491,-152.78343 441.24488,-158.3834 441.24488,-165.28335 z "
       style="font-style:normal;font-variant:normal;font-weight:normal;font-stretch:normal;letter-spacing:normal;word-spacing:normal;text-anchor:start;fill:none;fill-opacity:1;stroke:black;stroke-width:1.24999201;stroke-linecap:butt;stroke-linejoin:miter;stroke-miterlimit:10.43299961;stroke-dasharray:none;stroke-dashoffset:0;stroke-opacity:1"
       id="path3998" />
    <path
       d="M 441.24488,-15.284313 L 441.23238,-15.921809 L 441.18238,-16.559304 L 441.09488,-17.1843 L 440.99488,-17.796797 L 440.84488,-18.409293 L 440.68238,-18.996789 L 440.48238,-19.584285 L 440.25738,-20.146781 L 440.00739,-20.696778 L 439.73239,-21.246774 L 439.43239,-21.759271 L 439.10739,-22.271768 L 438.75739,-22.759265 L 438.3949,-23.234262 L 437.9949,-23.684259 L 437.5824,-24.121756 L 437.1449,-24.534253 L 436.69491,-24.934251 L 436.21991,-25.296749 L 435.73241,-25.646746 L 435.21992,-25.971744 L 434.70742,-26.271742 L 434.15742,-26.546741 L 433.60743,-26.796739 L 433.04493,-27.021737 L 432.45743,-27.221736 L 431.86994,-27.384235 L 431.25744,-27.534234 L 430.64495,-27.634234 L 430.01995,-27.721733 L 429.38245,-27.771733 L 428.74496,-27.784233 C 421.845,-27.784233 416.24504,-22.184268 416.24504,-15.284313 C 416.24504,-8.3843568 421.845,-2.7843926 428.74496,-2.7843926 C 435.64491,-2.7843926 441.24488,-8.3843568 441.24488,-15.284313 z "
       style="font-style:normal;font-variant:normal;font-weight:normal;font-stretch:normal;letter-spacing:normal;word-spacing:normal;text-anchor:start;fill:black;fill-opacity:1;fill-rule:nonzero;stroke:black;stroke-width:0;stroke-linecap:butt;stroke-linejoin:miter;stroke-miterlimit:10.43299961;stroke-dasharray:none;stroke-dashoffset:0;stroke-opacity:1"
       id="path4000" />
    <path
       d="M 441.24488,-40.284153 L 441.23238,-40.921649 L 441.18238,-41.559144 L 441.09488,-42.18414 L 440.99488,-42.796637 L 440.84488,-43.409133 L 440.68238,-43.996629 L 440.48238,-44.584125 L 440.25738,-45.146621 L 440.00739,-45.696618 L 439.73239,-46.246614 L 439.43239,-46.759111 L 439.10739,-47.271608 L 438.75739,-47.759105 L 438.3949,-48.234102 L 437.9949,-48.684099 L 437.5824,-49.121596 L 437.1449,-49.534093 L 436.69491,-49.934091 L 436.21991,-50.296589 L 435.73241,-50.646586 L 435.21992,-50.971584 L 434.70742,-51.271582 L 434.15742,-51.546581 L 433.60743,-51.796579 L 433.04493,-52.021577 L 432.45743,-52.221576 L 431.86994,-52.384075 L 431.25744,-52.534074 L 430.64495,-52.634074 L 430.01995,-52.721573 L 429.38245,-52.771573 L 428.74496,-52.784073 C 421.845,-52.784073 416.24504,-47.184108 416.24504,-40.284153 C 416.24504,-33.384197 421.845,-27.784233 428.74496,-27.784233 C 435.64491,-27.784233 441.24488,-33.384197 441.24488,-40.284153 z "
       style="font-style:normal;font-variant:normal;font-weight:normal;font-stretch:normal;letter-spacing:normal;word-spacing:normal;text-anchor:start;fill:black;fill-opacity:1;fill-rule:nonzero;stroke:black;stroke-width:0;stroke-linecap:butt;stroke-linejoin:miter;stroke-miterlimit:10.43299961;stroke-dasharray:none;stroke-dashoffset:0;stroke-opacity:1"
       id="path4002" />
    <path
       d="M 441.24488,-65.283993 L 441.23238,-65.921489 L 441.18238,-66.558984 L 441.09488,-67.18398 L 440.99488,-67.796477 L 440.84488,-68.408973 L 440.68238,-68.996469 L 440.48238,-69.583965 L 440.25738,-70.146461 L 440.00739,-70.696458 L 439.73239,-71.246454 L 439.43239,-71.758951 L 439.10739,-72.271448 L 438.75739,-72.758945 L 438.3949,-73.233942 L 437.9949,-73.683939 L 437.5824,-74.121436 L 437.1449,-74.533933 L 436.69491,-74.933931 L 436.21991,-75.296429 L 435.73241,-75.646426 L 435.21992,-75.971424 L 434.70742,-76.271422 L 434.15742,-76.546421 L 433.60743,-76.796419 L 433.04493,-77.021417 L 432.45743,-77.221416 L 431.86994,-77.383915 L 431.25744,-77.533914 L 430.64495,-77.633914 L 430.01995,-77.721413 L 429.38245,-77.771413 L 428.74496,-77.783913 C 421.845,-77.783913 416.24504,-72.183948 416.24504,-65.283993 C 416.24504,-58.384037 421.845,-52.784073 428.74496,-52.784073 C 435.64491,-52.784073 441.24488,-58.384037 441.24488,-65.283993 z "
       style="font-style:normal;font-variant:normal;font-weight:normal;font-stretch:normal;letter-spacing:normal;word-spacing:normal;text-anchor:start;fill:black;fill-opacity:1;fill-rule:nonzero;stroke:black;stroke-width:0;stroke-linecap:butt;stroke-linejoin:miter;stroke-miterlimit:10.43299961;stroke-dasharray:none;stroke-dashoffset:0;stroke-opacity:1"
       id="path4004" />
    <path
       d="M 441.24488,-90.283833 L 441.23238,-90.921329 L 441.18238,-91.558824 L 441.09488,-92.18382 L 440.99488,-92.796317 L 440.84488,-93.408813 L 440.68238,-93.996309 L 440.48238,-94.583805 L 440.25738,-95.146301 L 440.00739,-95.696298 L 439.73239,-96.246294 L 439.43239,-96.758791 L 439.10739,-97.271288 L 438.75739,-97.758785 L 438.3949,-98.233782 L 437.9949,-98.683779 L 437.5824,-99.121276 L 437.1449,-99.533773 L 436.69491,-99.933771 L 436.21991,-100.29627 L 435.73241,-100.64627 L 435.21992,-100.97126 L 434.70742,-101.27126 L 434.15742,-101.54626 L 433.60743,-101.79626 L 433.04493,-102.02126 L 432.45743,-102.22126 L 431.86994,-102.38376 L 431.25744,-102.53375 L 430.64495,-102.63375 L 430.01995,-102.72125 L 429.38245,-102.77125 L 428.74496,-102.78375 C 421.845,-102.78375 416.24504,-97.183788 416.24504,-90.283833 C 416.24504,-83.383877 421.845,-77.783913 428.74496,-77.783913 C 435.64491,-77.783913 441.24488,-83.383877 441.24488,-90.283833 z "
       style="font-style:normal;font-variant:normal;font-weight:normal;font-stretch:normal;letter-spacing:normal;word-spacing:normal;text-anchor:start;fill:black;fill-opacity:1;fill-rule:nonzero;stroke:black;stroke-width:0;stroke-linecap:butt;stroke-linejoin:miter;stroke-miterlimit:10.43299961;stroke-dasharray:none;stroke-dashoffset:0;stroke-opacity:1"
       id="path4006" />
    <path
       d="M 441.24488,-115.28367 L 441.23238,-115.92117 L 441.18238,-116.55866 L 441.09488,-117.18366 L 440.99488,-117.79616 L 440.84488,-118.40865 L 440.68238,-118.99615 L 440.48238,-119.58365 L 440.25738,-120.14614 L 440.00739,-120.69614 L 439.73239,-121.24613 L 439.43239,-121.75863 L 439.10739,-122.27113 L 438.75739,-122.75862 L 438.3949,-123.23362 L 437.9949,-123.68362 L 437.5824,-124.12112 L 437.1449,-124.53361 L 436.69491,-124.93361 L 436.21991,-125.29611 L 435.73241,-125.64611 L 435.21992,-125.9711 L 434.70742,-126.2711 L 434.15742,-126.5461 L 433.60743,-126.7961 L 433.04493,-127.0211 L 432.45743,-127.2211 L 431.86994,-127.3836 L 431.25744,-127.53359 L 430.64495,-127.63359 L 430.01995,-127.72109 L 429.38245,-127.77109 L 428.74496,-127.78359 C 421.845,-127.78359 416.24504,-122.18363 416.24504,-115.28367 C 416.24504,-108.38372 421.845,-102.78375 428.74496,-102.78375 C 435.64491,-102.78375 441.24488,-108.38372 441.24488,-115.28367 z "
       style="font-style:normal;font-variant:normal;font-weight:normal;font-stretch:normal;letter-spacing:normal;word-spacing:normal;text-anchor:start;fill:black;fill-opacity:1;fill-rule:nonzero;stroke:black;stroke-width:0;stroke-linecap:butt;stroke-linejoin:miter;stroke-miterlimit:10.43299961;stroke-dasharray:none;stroke-dashoffset:0;stroke-opacity:1"
       id="path4008" />
    <path
       d="M 366.24536,-265.28271 L 366.23286,-265.92021 L 366.18286,-266.5577 L 366.09536,-267.1827 L 365.99536,-267.7952 L 365.84536,-268.40769 L 365.68286,-268.99519 L 365.48286,-269.58269 L 365.25786,-270.14518 L 365.00787,-270.69518 L 364.73287,-271.24517 L 364.43287,-271.75767 L 364.10787,-272.27017 L 363.75787,-272.75766 L 363.39538,-273.23266 L 362.99538,-273.68266 L 362.58288,-274.12016 L 362.14538,-274.53265 L 361.69539,-274.93265 L 361.22039,-275.29515 L 360.73289,-275.64515 L 360.2204,-275.97014 L 359.7079,-276.27014 L 359.1579,-276.54514 L 358.60791,-276.79514 L 358.04541,-277.02014 L 357.45791,-277.22014 L 356.87042,-277.38264 L 356.25792,-277.53263 L 355.64543,-277.63263 L 355.02043,-277.72013 L 354.38293,-277.77013 L 353.74544,-277.78263 C 346.84548,-277.78263 341.24552,-272.18267 341.24552,-265.28271 C 341.24552,-258.38276 346.84548,-252.78279 353.74544,-252.78279 C 360.64539,-252.78279 366.24536,-258.38276 366.24536,-265.28271 z "
       style="font-style:normal;font-variant:normal;font-weight:normal;font-stretch:normal;letter-spacing:normal;word-spacing:normal;text-anchor:start;fill:white;fill-opacity:1;fill-rule:nonzero;stroke:white;stroke-width:0;stroke-linecap:butt;stroke-linejoin:miter;stroke-miterlimit:10.43299961;stroke-dasharray:none;stroke-dashoffset:0;stroke-opacity:1"
       id="path4010" />
    <path
       d="M 366.24536,-265.28271 L 366.23286,-265.92021 L 366.18286,-266.5577 L 366.09536,-267.1827 L 365.99536,-267.7952 L 365.84536,-268.40769 L 365.68286,-268.99519 L 365.48286,-269.58269 L 365.25786,-270.14518 L 365.00787,-270.69518 L 364.73287,-271.24517 L 364.43287,-271.75767 L 364.10787,-272.27017 L 363.75787,-272.75766 L 363.39538,-273.23266 L 362.99538,-273.68266 L 362.58288,-274.12016 L 362.14538,-274.53265 L 361.69539,-274.93265 L 361.22039,-275.29515 L 360.73289,-275.64515 L 360.2204,-275.97014 L 359.7079,-276.27014 L 359.1579,-276.54514 L 358.60791,-276.79514 L 358.04541,-277.02014 L 357.45791,-277.22014 L 356.87042,-277.38264 L 356.25792,-277.53263 L 355.64543,-277.63263 L 355.02043,-277.72013 L 354.38293,-277.77013 L 353.74544,-277.78263 C 346.84548,-277.78263 341.24552,-272.18267 341.24552,-265.28271 C 341.24552,-258.38276 346.84548,-252.78279 353.74544,-252.78279 C 360.64539,-252.78279 366.24536,-258.38276 366.24536,-265.28271 z "
       style="font-style:normal;font-variant:normal;font-weight:normal;font-stretch:normal;letter-spacing:normal;word-spacing:normal;text-anchor:start;fill:none;fill-opacity:1;stroke:black;stroke-width:1.24999201;stroke-linecap:butt;stroke-linejoin:miter;stroke-miterlimit:10.43299961;stroke-dasharray:none;stroke-dashoffset:0;stroke-opacity:1"
       id="path4012" />
    <path
       d="M 366.24536,-240.28287 L 366.23286,-240.92037 L 366.18286,-241.55786 L 366.09536,-242.18286 L 365.99536,-242.79536 L 365.84536,-243.40785 L 365.68286,-243.99535 L 365.48286,-244.58285 L 365.25786,-245.14534 L 365.00787,-245.69534 L 364.73287,-246.24533 L 364.43287,-246.75783 L 364.10787,-247.27033 L 363.75787,-247.75782 L 363.39538,-248.23282 L 362.99538,-248.68282 L 362.58288,-249.12032 L 362.14538,-249.53281 L 361.69539,-249.93281 L 361.22039,-250.29531 L 360.73289,-250.64531 L 360.2204,-250.9703 L 359.7079,-251.2703 L 359.1579,-251.5453 L 358.60791,-251.7953 L 358.04541,-252.0203 L 357.45791,-252.2203 L 356.87042,-252.3828 L 356.25792,-252.53279 L 355.64543,-252.63279 L 355.02043,-252.72029 L 354.38293,-252.77029 L 353.74544,-252.78279 C 346.84548,-252.78279 341.24552,-247.18283 341.24552,-240.28287 C 341.24552,-233.38292 346.84548,-227.78295 353.74544,-227.78295 C 360.64539,-227.78295 366.24536,-233.38292 366.24536,-240.28287 z "
       style="font-style:normal;font-variant:normal;font-weight:normal;font-stretch:normal;letter-spacing:normal;word-spacing:normal;text-anchor:start;fill:white;fill-opacity:1;fill-rule:nonzero;stroke:white;stroke-width:0;stroke-linecap:butt;stroke-linejoin:miter;stroke-miterlimit:10.43299961;stroke-dasharray:none;stroke-dashoffset:0;stroke-opacity:1"
       id="path4014" />
    <path
       d="M 366.24536,-240.28287 L 366.23286,-240.92037 L 366.18286,-241.55786 L 366.09536,-242.18286 L 365.99536,-242.79536 L 365.84536,-243.40785 L 365.68286,-243.99535 L 365.48286,-244.58285 L 365.25786,-245.14534 L 365.00787,-245.69534 L 364.73287,-246.24533 L 364.43287,-246.75783 L 364.10787,-247.27033 L 363.75787,-247.75782 L 363.39538,-248.23282 L 362.99538,-248.68282 L 362.58288,-249.12032 L 362.14538,-249.53281 L 361.69539,-249.93281 L 361.22039,-250.29531 L 360.73289,-250.64531 L 360.2204,-250.9703 L 359.7079,-251.2703 L 359.1579,-251.5453 L 358.60791,-251.7953 L 358.04541,-252.0203 L 357.45791,-252.2203 L 356.87042,-252.3828 L 356.25792,-252.53279 L 355.64543,-252.63279 L 355.02043,-252.72029 L 354.38293,-252.77029 L 353.74544,-252.78279 C 346.84548,-252.78279 341.24552,-247.18283 341.24552,-240.28287 C 341.24552,-233.38292 346.84548,-227.78295 353.74544,-227.78295 C 360.64539,-227.78295 366.24536,-233.38292 366.24536,-240.28287 z "
       style="font-style:normal;font-variant:normal;font-weight:normal;font-stretch:normal;letter-spacing:normal;word-spacing:normal;text-anchor:start;fill:none;fill-opacity:1;stroke:black;stroke-width:1.24999201;stroke-linecap:butt;stroke-linejoin:miter;stroke-miterlimit:10.43299961;stroke-dasharray:none;stroke-dashoffset:0;stroke-opacity:1"
       id="path4016" />
    <path
       d="M 366.24536,-215.28303 L 366.23286,-215.92053 L 366.18286,-216.55802 L 366.09536,-217.18302 L 365.99536,-217.79552 L 365.84536,-218.40801 L 365.68286,-218.99551 L 365.48286,-219.58301 L 365.25786,-220.1455 L 365.00787,-220.6955 L 364.73287,-221.24549 L 364.43287,-221.75799 L 364.10787,-222.27049 L 363.75787,-222.75798 L 363.39538,-223.23298 L 362.99538,-223.68298 L 362.58288,-224.12048 L 362.14538,-224.53297 L 361.69539,-224.93297 L 361.22039,-225.29547 L 360.73289,-225.64547 L 360.2204,-225.97046 L 359.7079,-226.27046 L 359.1579,-226.54546 L 358.60791,-226.79546 L 358.04541,-227.02046 L 357.45791,-227.22046 L 356.87042,-227.38296 L 356.25792,-227.53295 L 355.64543,-227.63295 L 355.02043,-227.72045 L 354.38293,-227.77045 L 353.74544,-227.78295 C 346.84548,-227.78295 341.24552,-222.18299 341.24552,-215.28303 C 341.24552,-208.38308 346.84548,-202.78311 353.74544,-202.78311 C 360.64539,-202.78311 366.24536,-208.38308 366.24536,-215.28303 z "
       style="font-style:normal;font-variant:normal;font-weight:normal;font-stretch:normal;letter-spacing:normal;word-spacing:normal;text-anchor:start;fill:white;fill-opacity:1;fill-rule:nonzero;stroke:white;stroke-width:0;stroke-linecap:butt;stroke-linejoin:miter;stroke-miterlimit:10.43299961;stroke-dasharray:none;stroke-dashoffset:0;stroke-opacity:1"
       id="path4018" />
    <path
       d="M 366.24536,-215.28303 L 366.23286,-215.92053 L 366.18286,-216.55802 L 366.09536,-217.18302 L 365.99536,-217.79552 L 365.84536,-218.40801 L 365.68286,-218.99551 L 365.48286,-219.58301 L 365.25786,-220.1455 L 365.00787,-220.6955 L 364.73287,-221.24549 L 364.43287,-221.75799 L 364.10787,-222.27049 L 363.75787,-222.75798 L 363.39538,-223.23298 L 362.99538,-223.68298 L 362.58288,-224.12048 L 362.14538,-224.53297 L 361.69539,-224.93297 L 361.22039,-225.29547 L 360.73289,-225.64547 L 360.2204,-225.97046 L 359.7079,-226.27046 L 359.1579,-226.54546 L 358.60791,-226.79546 L 358.04541,-227.02046 L 357.45791,-227.22046 L 356.87042,-227.38296 L 356.25792,-227.53295 L 355.64543,-227.63295 L 355.02043,-227.72045 L 354.38293,-227.77045 L 353.74544,-227.78295 C 346.84548,-227.78295 341.24552,-222.18299 341.24552,-215.28303 C 341.24552,-208.38308 346.84548,-202.78311 353.74544,-202.78311 C 360.64539,-202.78311 366.24536,-208.38308 366.24536,-215.28303 z "
       style="font-style:normal;font-variant:normal;font-weight:normal;font-stretch:normal;letter-spacing:normal;word-spacing:normal;text-anchor:start;fill:none;fill-opacity:1;stroke:black;stroke-width:1.24999201;stroke-linecap:butt;stroke-linejoin:miter;stroke-miterlimit:10.43299961;stroke-dasharray:none;stroke-dashoffset:0;stroke-opacity:1"
       id="path4020" />
    <path
       d="M 366.24536,-15.284313 L 366.23286,-15.921809 L 366.18286,-16.559304 L 366.09536,-17.1843 L 365.99536,-17.796797 L 365.84536,-18.409293 L 365.68286,-18.996789 L 365.48286,-19.584285 L 365.25786,-20.146781 L 365.00787,-20.696778 L 364.73287,-21.246774 L 364.43287,-21.759271 L 364.10787,-22.271768 L 363.75787,-22.759265 L 363.39538,-23.234262 L 362.99538,-23.684259 L 362.58288,-24.121756 L 362.14538,-24.534253 L 361.69539,-24.934251 L 361.22039,-25.296749 L 360.73289,-25.646746 L 360.2204,-25.971744 L 359.7079,-26.271742 L 359.1579,-26.546741 L 358.60791,-26.796739 L 358.04541,-27.021737 L 357.45791,-27.221736 L 356.87042,-27.384235 L 356.25792,-27.534234 L 355.64543,-27.634234 L 355.02043,-27.721733 L 354.38293,-27.771733 L 353.74544,-27.784233 C 346.84548,-27.784233 341.24552,-22.184268 341.24552,-15.284313 C 341.24552,-8.3843568 346.84548,-2.7843926 353.74544,-2.7843926 C 360.64539,-2.7843926 366.24536,-8.3843568 366.24536,-15.284313 z "
       style="font-style:normal;font-variant:normal;font-weight:normal;font-stretch:normal;letter-spacing:normal;word-spacing:normal;text-anchor:start;fill:black;fill-opacity:1;fill-rule:nonzero;stroke:black;stroke-width:0;stroke-linecap:butt;stroke-linejoin:miter;stroke-miterlimit:10.43299961;stroke-dasharray:none;stroke-dashoffset:0;stroke-opacity:1"
       id="path4022" />
    <path
       d="M 366.24536,-40.284153 L 366.23286,-40.921649 L 366.18286,-41.559144 L 366.09536,-42.18414 L 365.99536,-42.796637 L 365.84536,-43.409133 L 365.68286,-43.996629 L 365.48286,-44.584125 L 365.25786,-45.146621 L 365.00787,-45.696618 L 364.73287,-46.246614 L 364.43287,-46.759111 L 364.10787,-47.271608 L 363.75787,-47.759105 L 363.39538,-48.234102 L 362.99538,-48.684099 L 362.58288,-49.121596 L 362.14538,-49.534093 L 361.69539,-49.934091 L 361.22039,-50.296589 L 360.73289,-50.646586 L 360.2204,-50.971584 L 359.7079,-51.271582 L 359.1579,-51.546581 L 358.60791,-51.796579 L 358.04541,-52.021577 L 357.45791,-52.221576 L 356.87042,-52.384075 L 356.25792,-52.534074 L 355.64543,-52.634074 L 355.02043,-52.721573 L 354.38293,-52.771573 L 353.74544,-52.784073 C 346.84548,-52.784073 341.24552,-47.184108 341.24552,-40.284153 C 341.24552,-33.384197 346.84548,-27.784233 353.74544,-27.784233 C 360.64539,-27.784233 366.24536,-33.384197 366.24536,-40.284153 z "
       style="font-style:normal;font-variant:normal;font-weight:normal;font-stretch:normal;letter-spacing:normal;word-spacing:normal;text-anchor:start;fill:black;fill-opacity:1;fill-rule:nonzero;stroke:black;stroke-width:0;stroke-linecap:butt;stroke-linejoin:miter;stroke-miterlimit:10.43299961;stroke-dasharray:none;stroke-dashoffset:0;stroke-opacity:1"
       id="path4024" />
    <path
       d="M 366.24536,-65.283993 L 366.23286,-65.921489 L 366.18286,-66.558984 L 366.09536,-67.18398 L 365.99536,-67.796477 L 365.84536,-68.408973 L 365.68286,-68.996469 L 365.48286,-69.583965 L 365.25786,-70.146461 L 365.00787,-70.696458 L 364.73287,-71.246454 L 364.43287,-71.758951 L 364.10787,-72.271448 L 363.75787,-72.758945 L 363.39538,-73.233942 L 362.99538,-73.683939 L 362.58288,-74.121436 L 362.14538,-74.533933 L 361.69539,-74.933931 L 361.22039,-75.296429 L 360.73289,-75.646426 L 360.2204,-75.971424 L 359.7079,-76.271422 L 359.1579,-76.546421 L 358.60791,-76.796419 L 358.04541,-77.021417 L 357.45791,-77.221416 L 356.87042,-77.383915 L 356.25792,-77.533914 L 355.64543,-77.633914 L 355.02043,-77.721413 L 354.38293,-77.771413 L 353.74544,-77.783913 C 346.84548,-77.783913 341.24552,-72.183948 341.24552,-65.283993 C 341.24552,-58.384037 346.84548,-52.784073 353.74544,-52.784073 C 360.64539,-52.784073 366.24536,-58.384037 366.24536,-65.283993 z "
       style="font-style:normal;font-variant:normal;font-weight:normal;font-stretch:normal;letter-spacing:normal;word-spacing:normal;text-anchor:start;fill:black;fill-opacity:1;fill-rule:nonzero;stroke:black;stroke-width:0;stroke-linecap:butt;stroke-linejoin:miter;stroke-miterlimit:10.43299961;stroke-dasharray:none;stroke-dashoffset:0;stroke-opacity:1"
       id="path4026" />
    <path
       d="M 266.246,-15.284313 L 266.2335,-15.921809 L 266.1835,-16.559304 L 266.096,-17.1843 L 265.996,-17.796797 L 265.846,-18.409293 L 265.6835,-18.996789 L 265.4835,-19.584285 L 265.2585,-20.146781 L 265.00851,-20.696778 L 264.73351,-21.246774 L 264.43351,-21.759271 L 264.10851,-22.271768 L 263.75851,-22.759265 L 263.39602,-23.234262 L 262.99602,-23.684259 L 262.58352,-24.121756 L 262.14602,-24.534253 L 261.69603,-24.934251 L 261.22103,-25.296749 L 260.73353,-25.646746 L 260.22104,-25.971744 L 259.70854,-26.271742 L 259.15854,-26.546741 L 258.60855,-26.796739 L 258.04605,-27.021737 L 257.45855,-27.221736 L 256.87106,-27.384235 L 256.25856,-27.534234 L 255.64607,-27.634234 L 255.02107,-27.721733 L 254.38357,-27.771733 L 253.74608,-27.784233 C 246.84612,-27.784233 241.24616,-22.184268 241.24616,-15.284313 C 241.24616,-8.3843568 246.84612,-2.7843926 253.74608,-2.7843926 C 260.64603,-2.7843926 266.246,-8.3843568 266.246,-15.284313 z "
       style="font-style:normal;font-variant:normal;font-weight:normal;font-stretch:normal;letter-spacing:normal;word-spacing:normal;text-anchor:start;fill:white;fill-opacity:1;fill-rule:nonzero;stroke:white;stroke-width:0;stroke-linecap:butt;stroke-linejoin:miter;stroke-miterlimit:10.43299961;stroke-dasharray:none;stroke-dashoffset:0;stroke-opacity:1"
       id="path4028" />
    <path
       d="M 266.246,-15.284313 L 266.2335,-15.921809 L 266.1835,-16.559304 L 266.096,-17.1843 L 265.996,-17.796797 L 265.846,-18.409293 L 265.6835,-18.996789 L 265.4835,-19.584285 L 265.2585,-20.146781 L 265.00851,-20.696778 L 264.73351,-21.246774 L 264.43351,-21.759271 L 264.10851,-22.271768 L 263.75851,-22.759265 L 263.39602,-23.234262 L 262.99602,-23.684259 L 262.58352,-24.121756 L 262.14602,-24.534253 L 261.69603,-24.934251 L 261.22103,-25.296749 L 260.73353,-25.646746 L 260.22104,-25.971744 L 259.70854,-26.271742 L 259.15854,-26.546741 L 258.60855,-26.796739 L 258.04605,-27.021737 L 257.45855,-27.221736 L 256.87106,-27.384235 L 256.25856,-27.534234 L 255.64607,-27.634234 L 255.02107,-27.721733 L 254.38357,-27.771733 L 253.74608,-27.784233 C 246.84612,-27.784233 241.24616,-22.184268 241.24616,-15.284313 C 241.24616,-8.3843568 246.84612,-2.7843926 253.74608,-2.7843926 C 260.64603,-2.7843926 266.246,-8.3843568 266.246,-15.284313 z "
       style="font-style:normal;font-variant:normal;font-weight:normal;font-stretch:normal;letter-spacing:normal;word-spacing:normal;text-anchor:start;fill:none;fill-opacity:1;stroke:black;stroke-width:1.24999201;stroke-linecap:butt;stroke-linejoin:miter;stroke-miterlimit:10.43299961;stroke-dasharray:none;stroke-dashoffset:0;stroke-opacity:1"
       id="path4030" />
    <path
       d="M 266.246,-40.284153 L 266.2335,-40.921649 L 266.1835,-41.559144 L 266.096,-42.18414 L 265.996,-42.796637 L 265.846,-43.409133 L 265.6835,-43.996629 L 265.4835,-44.584125 L 265.2585,-45.146621 L 265.00851,-45.696618 L 264.73351,-46.246614 L 264.43351,-46.759111 L 264.10851,-47.271608 L 263.75851,-47.759105 L 263.39602,-48.234102 L 262.99602,-48.684099 L 262.58352,-49.121596 L 262.14602,-49.534093 L 261.69603,-49.934091 L 261.22103,-50.296589 L 260.73353,-50.646586 L 260.22104,-50.971584 L 259.70854,-51.271582 L 259.15854,-51.546581 L 258.60855,-51.796579 L 258.04605,-52.021577 L 257.45855,-52.221576 L 256.87106,-52.384075 L 256.25856,-52.534074 L 255.64607,-52.634074 L 255.02107,-52.721573 L 254.38357,-52.771573 L 253.74608,-52.784073 C 246.84612,-52.784073 241.24616,-47.184108 241.24616,-40.284153 C 241.24616,-33.384197 246.84612,-27.784233 253.74608,-27.784233 C 260.64603,-27.784233 266.246,-33.384197 266.246,-40.284153 z "
       style="font-style:normal;font-variant:normal;font-weight:normal;font-stretch:normal;letter-spacing:normal;word-spacing:normal;text-anchor:start;fill:white;fill-opacity:1;fill-rule:nonzero;stroke:white;stroke-width:0;stroke-linecap:butt;stroke-linejoin:miter;stroke-miterlimit:10.43299961;stroke-dasharray:none;stroke-dashoffset:0;stroke-opacity:1"
       id="path4032" />
    <path
       d="M 266.246,-40.284153 L 266.2335,-40.921649 L 266.1835,-41.559144 L 266.096,-42.18414 L 265.996,-42.796637 L 265.846,-43.409133 L 265.6835,-43.996629 L 265.4835,-44.584125 L 265.2585,-45.146621 L 265.00851,-45.696618 L 264.73351,-46.246614 L 264.43351,-46.759111 L 264.10851,-47.271608 L 263.75851,-47.759105 L 263.39602,-48.234102 L 262.99602,-48.684099 L 262.58352,-49.121596 L 262.14602,-49.534093 L 261.69603,-49.934091 L 261.22103,-50.296589 L 260.73353,-50.646586 L 260.22104,-50.971584 L 259.70854,-51.271582 L 259.15854,-51.546581 L 258.60855,-51.796579 L 258.04605,-52.021577 L 257.45855,-52.221576 L 256.87106,-52.384075 L 256.25856,-52.534074 L 255.64607,-52.634074 L 255.02107,-52.721573 L 254.38357,-52.771573 L 253.74608,-52.784073 C 246.84612,-52.784073 241.24616,-47.184108 241.24616,-40.284153 C 241.24616,-33.384197 246.84612,-27.784233 253.74608,-27.784233 C 260.64603,-27.784233 266.246,-33.384197 266.246,-40.284153 z "
       style="font-style:normal;font-variant:normal;font-weight:normal;font-stretch:normal;letter-spacing:normal;word-spacing:normal;text-anchor:start;fill:none;fill-opacity:1;stroke:black;stroke-width:1.24999201;stroke-linecap:butt;stroke-linejoin:miter;stroke-miterlimit:10.43299961;stroke-dasharray:none;stroke-dashoffset:0;stroke-opacity:1"
       id="path4034" />
    <path
       d="M 266.246,-65.283993 L 266.2335,-65.921489 L 266.1835,-66.558984 L 266.096,-67.18398 L 265.996,-67.796477 L 265.846,-68.408973 L 265.6835,-68.996469 L 265.4835,-69.583965 L 265.2585,-70.146461 L 265.00851,-70.696458 L 264.73351,-71.246454 L 264.43351,-71.758951 L 264.10851,-72.271448 L 263.75851,-72.758945 L 263.39602,-73.233942 L 262.99602,-73.683939 L 262.58352,-74.121436 L 262.14602,-74.533933 L 261.69603,-74.933931 L 261.22103,-75.296429 L 260.73353,-75.646426 L 260.22104,-75.971424 L 259.70854,-76.271422 L 259.15854,-76.546421 L 258.60855,-76.796419 L 258.04605,-77.021417 L 257.45855,-77.221416 L 256.87106,-77.383915 L 256.25856,-77.533914 L 255.64607,-77.633914 L 255.02107,-77.721413 L 254.38357,-77.771413 L 253.74608,-77.783913 C 246.84612,-77.783913 241.24616,-72.183948 241.24616,-65.283993 C 241.24616,-58.384037 246.84612,-52.784073 253.74608,-52.784073 C 260.64603,-52.784073 266.246,-58.384037 266.246,-65.283993 z "
       style="font-style:normal;font-variant:normal;font-weight:normal;font-stretch:normal;letter-spacing:normal;word-spacing:normal;text-anchor:start;fill:white;fill-opacity:1;fill-rule:nonzero;stroke:white;stroke-width:0;stroke-linecap:butt;stroke-linejoin:miter;stroke-miterlimit:10.43299961;stroke-dasharray:none;stroke-dashoffset:0;stroke-opacity:1"
       id="path4036" />
    <path
       d="M 266.246,-65.283993 L 266.2335,-65.921489 L 266.1835,-66.558984 L 266.096,-67.18398 L 265.996,-67.796477 L 265.846,-68.408973 L 265.6835,-68.996469 L 265.4835,-69.583965 L 265.2585,-70.146461 L 265.00851,-70.696458 L 264.73351,-71.246454 L 264.43351,-71.758951 L 264.10851,-72.271448 L 263.75851,-72.758945 L 263.39602,-73.233942 L 262.99602,-73.683939 L 262.58352,-74.121436 L 262.14602,-74.533933 L 261.69603,-74.933931 L 261.22103,-75.296429 L 260.73353,-75.646426 L 260.22104,-75.971424 L 259.70854,-76.271422 L 259.15854,-76.546421 L 258.60855,-76.796419 L 258.04605,-77.021417 L 257.45855,-77.221416 L 256.87106,-77.383915 L 256.25856,-77.533914 L 255.64607,-77.633914 L 255.02107,-77.721413 L 254.38357,-77.771413 L 253.74608,-77.783913 C 246.84612,-77.783913 241.24616,-72.183948 241.24616,-65.283993 C 241.24616,-58.384037 246.84612,-52.784073 253.74608,-52.784073 C 260.64603,-52.784073 266.246,-58.384037 266.246,-65.283993 z "
       style="font-style:normal;font-variant:normal;font-weight:normal;font-stretch:normal;letter-spacing:normal;word-spacing:normal;text-anchor:start;fill:none;fill-opacity:1;stroke:black;stroke-width:1.24999201;stroke-linecap:butt;stroke-linejoin:miter;stroke-miterlimit:10.43299961;stroke-dasharray:none;stroke-dashoffset:0;stroke-opacity:1"
       id="path4038" />
    <path
       d="M 266.246,-90.283833 L 266.2335,-90.921329 L 266.1835,-91.558824 L 266.096,-92.18382 L 265.996,-92.796317 L 265.846,-93.408813 L 265.6835,-93.996309 L 265.4835,-94.583805 L 265.2585,-95.146301 L 265.00851,-95.696298 L 264.73351,-96.246294 L 264.43351,-96.758791 L 264.10851,-97.271288 L 263.75851,-97.758785 L 263.39602,-98.233782 L 262.99602,-98.683779 L 262.58352,-99.121276 L 262.14602,-99.533773 L 261.69603,-99.933771 L 261.22103,-100.29627 L 260.73353,-100.64627 L 260.22104,-100.97126 L 259.70854,-101.27126 L 259.15854,-101.54626 L 258.60855,-101.79626 L 258.04605,-102.02126 L 257.45855,-102.22126 L 256.87106,-102.38376 L 256.25856,-102.53375 L 255.64607,-102.63375 L 255.02107,-102.72125 L 254.38357,-102.77125 L 253.74608,-102.78375 C 246.84612,-102.78375 241.24616,-97.183788 241.24616,-90.283833 C 241.24616,-83.383877 246.84612,-77.783913 253.74608,-77.783913 C 260.64603,-77.783913 266.246,-83.383877 266.246,-90.283833 z "
       style="font-style:normal;font-variant:normal;font-weight:normal;font-stretch:normal;letter-spacing:normal;word-spacing:normal;text-anchor:start;fill:white;fill-opacity:1;fill-rule:nonzero;stroke:white;stroke-width:0;stroke-linecap:butt;stroke-linejoin:miter;stroke-miterlimit:10.43299961;stroke-dasharray:none;stroke-dashoffset:0;stroke-opacity:1"
       id="path4040" />
    <path
       d="M 266.246,-90.283833 L 266.2335,-90.921329 L 266.1835,-91.558824 L 266.096,-92.18382 L 265.996,-92.796317 L 265.846,-93.408813 L 265.6835,-93.996309 L 265.4835,-94.583805 L 265.2585,-95.146301 L 265.00851,-95.696298 L 264.73351,-96.246294 L 264.43351,-96.758791 L 264.10851,-97.271288 L 263.75851,-97.758785 L 263.39602,-98.233782 L 262.99602,-98.683779 L 262.58352,-99.121276 L 262.14602,-99.533773 L 261.69603,-99.933771 L 261.22103,-100.29627 L 260.73353,-100.64627 L 260.22104,-100.97126 L 259.70854,-101.27126 L 259.15854,-101.54626 L 258.60855,-101.79626 L 258.04605,-102.02126 L 257.45855,-102.22126 L 256.87106,-102.38376 L 256.25856,-102.53375 L 255.64607,-102.63375 L 255.02107,-102.72125 L 254.38357,-102.77125 L 253.74608,-102.78375 C 246.84612,-102.78375 241.24616,-97.183788 241.24616,-90.283833 C 241.24616,-83.383877 246.84612,-77.783913 253.74608,-77.783913 C 260.64603,-77.783913 266.246,-83.383877 266.246,-90.283833 z "
       style="font-style:normal;font-variant:normal;font-weight:normal;font-stretch:normal;letter-spacing:normal;word-spacing:normal;text-anchor:start;fill:none;fill-opacity:1;stroke:black;stroke-width:1.24999201;stroke-linecap:butt;stroke-linejoin:miter;stroke-miterlimit:10.43299961;stroke-dasharray:none;stroke-dashoffset:0;stroke-opacity:1"
       id="path4042" />
    <path
       d="M 266.246,-115.28367 L 266.2335,-115.92117 L 266.1835,-116.55866 L 266.096,-117.18366 L 265.996,-117.79616 L 265.846,-118.40865 L 265.6835,-118.99615 L 265.4835,-119.58365 L 265.2585,-120.14614 L 265.00851,-120.69614 L 264.73351,-121.24613 L 264.43351,-121.75863 L 264.10851,-122.27113 L 263.75851,-122.75862 L 263.39602,-123.23362 L 262.99602,-123.68362 L 262.58352,-124.12112 L 262.14602,-124.53361 L 261.69603,-124.93361 L 261.22103,-125.29611 L 260.73353,-125.64611 L 260.22104,-125.9711 L 259.70854,-126.2711 L 259.15854,-126.5461 L 258.60855,-126.7961 L 258.04605,-127.0211 L 257.45855,-127.2211 L 256.87106,-127.3836 L 256.25856,-127.53359 L 255.64607,-127.63359 L 255.02107,-127.72109 L 254.38357,-127.77109 L 253.74608,-127.78359 C 246.84612,-127.78359 241.24616,-122.18363 241.24616,-115.28367 C 241.24616,-108.38372 246.84612,-102.78375 253.74608,-102.78375 C 260.64603,-102.78375 266.246,-108.38372 266.246,-115.28367 z "
       style="font-style:normal;font-variant:normal;font-weight:normal;font-stretch:normal;letter-spacing:normal;word-spacing:normal;text-anchor:start;fill:white;fill-opacity:1;fill-rule:nonzero;stroke:white;stroke-width:0;stroke-linecap:butt;stroke-linejoin:miter;stroke-miterlimit:10.43299961;stroke-dasharray:none;stroke-dashoffset:0;stroke-opacity:1"
       id="path4044" />
    <path
       d="M 266.246,-115.28367 L 266.2335,-115.92117 L 266.1835,-116.55866 L 266.096,-117.18366 L 265.996,-117.79616 L 265.846,-118.40865 L 265.6835,-118.99615 L 265.4835,-119.58365 L 265.2585,-120.14614 L 265.00851,-120.69614 L 264.73351,-121.24613 L 264.43351,-121.75863 L 264.10851,-122.27113 L 263.75851,-122.75862 L 263.39602,-123.23362 L 262.99602,-123.68362 L 262.58352,-124.12112 L 262.14602,-124.53361 L 261.69603,-124.93361 L 261.22103,-125.29611 L 260.73353,-125.64611 L 260.22104,-125.9711 L 259.70854,-126.2711 L 259.15854,-126.5461 L 258.60855,-126.7961 L 258.04605,-127.0211 L 257.45855,-127.2211 L 256.87106,-127.3836 L 256.25856,-127.53359 L 255.64607,-127.63359 L 255.02107,-127.72109 L 254.38357,-127.77109 L 253.74608,-127.78359 C 246.84612,-127.78359 241.24616,-122.18363 241.24616,-115.28367 C 241.24616,-108.38372 246.84612,-102.78375 253.74608,-102.78375 C 260.64603,-102.78375 266.246,-108.38372 266.246,-115.28367 z "
       style="font-style:normal;font-variant:normal;font-weight:normal;font-stretch:normal;letter-spacing:normal;word-spacing:normal;text-anchor:start;fill:none;fill-opacity:1;stroke:black;stroke-width:1.24999201;stroke-linecap:butt;stroke-linejoin:miter;stroke-miterlimit:10.43299961;stroke-dasharray:none;stroke-dashoffset:0;stroke-opacity:1"
       id="path4046" />
    <path
       d="M 266.246,-265.28271 L 266.2335,-265.92021 L 266.1835,-266.5577 L 266.096,-267.1827 L 265.996,-267.7952 L 265.846,-268.40769 L 265.6835,-268.99519 L 265.4835,-269.58269 L 265.2585,-270.14518 L 265.00851,-270.69518 L 264.73351,-271.24517 L 264.43351,-271.75767 L 264.10851,-272.27017 L 263.75851,-272.75766 L 263.39602,-273.23266 L 262.99602,-273.68266 L 262.58352,-274.12016 L 262.14602,-274.53265 L 261.69603,-274.93265 L 261.22103,-275.29515 L 260.73353,-275.64515 L 260.22104,-275.97014 L 259.70854,-276.27014 L 259.15854,-276.54514 L 258.60855,-276.79514 L 258.04605,-277.02014 L 257.45855,-277.22014 L 256.87106,-277.38264 L 256.25856,-277.53263 L 255.64607,-277.63263 L 255.02107,-277.72013 L 254.38357,-277.77013 L 253.74608,-277.78263 C 246.84612,-277.78263 241.24616,-272.18267 241.24616,-265.28271 C 241.24616,-258.38276 246.84612,-252.78279 253.74608,-252.78279 C 260.64603,-252.78279 266.246,-258.38276 266.246,-265.28271 z "
       style="font-style:normal;font-variant:normal;font-weight:normal;font-stretch:normal;letter-spacing:normal;word-spacing:normal;text-anchor:start;fill:black;fill-opacity:1;fill-rule:nonzero;stroke:black;stroke-width:0;stroke-linecap:butt;stroke-linejoin:miter;stroke-miterlimit:10.43299961;stroke-dasharray:none;stroke-dashoffset:0;stroke-opacity:1"
       id="path4048" />
    <path
       d="M 266.246,-240.28287 L 266.2335,-240.92037 L 266.1835,-241.55786 L 266.096,-242.18286 L 265.996,-242.79536 L 265.846,-243.40785 L 265.6835,-243.99535 L 265.4835,-244.58285 L 265.2585,-245.14534 L 265.00851,-245.69534 L 264.73351,-246.24533 L 264.43351,-246.75783 L 264.10851,-247.27033 L 263.75851,-247.75782 L 263.39602,-248.23282 L 262.99602,-248.68282 L 262.58352,-249.12032 L 262.14602,-249.53281 L 261.69603,-249.93281 L 261.22103,-250.29531 L 260.73353,-250.64531 L 260.22104,-250.9703 L 259.70854,-251.2703 L 259.15854,-251.5453 L 258.60855,-251.7953 L 258.04605,-252.0203 L 257.45855,-252.2203 L 256.87106,-252.3828 L 256.25856,-252.53279 L 255.64607,-252.63279 L 255.02107,-252.72029 L 254.38357,-252.77029 L 253.74608,-252.78279 C 246.84612,-252.78279 241.24616,-247.18283 241.24616,-240.28287 C 241.24616,-233.38292 246.84612,-227.78295 253.74608,-227.78295 C 260.64603,-227.78295 266.246,-233.38292 266.246,-240.28287 z "
       style="font-style:normal;font-variant:normal;font-weight:normal;font-stretch:normal;letter-spacing:normal;word-spacing:normal;text-anchor:start;fill:black;fill-opacity:1;fill-rule:nonzero;stroke:black;stroke-width:0;stroke-linecap:butt;stroke-linejoin:miter;stroke-miterlimit:10.43299961;stroke-dasharray:none;stroke-dashoffset:0;stroke-opacity:1"
       id="path4050" />
    <path
       d="M 266.246,-215.28303 L 266.2335,-215.92053 L 266.1835,-216.55802 L 266.096,-217.18302 L 265.996,-217.79552 L 265.846,-218.40801 L 265.6835,-218.99551 L 265.4835,-219.58301 L 265.2585,-220.1455 L 265.00851,-220.6955 L 264.73351,-221.24549 L 264.43351,-221.75799 L 264.10851,-222.27049 L 263.75851,-222.75798 L 263.39602,-223.23298 L 262.99602,-223.68298 L 262.58352,-224.12048 L 262.14602,-224.53297 L 261.69603,-224.93297 L 261.22103,-225.29547 L 260.73353,-225.64547 L 260.22104,-225.97046 L 259.70854,-226.27046 L 259.15854,-226.54546 L 258.60855,-226.79546 L 258.04605,-227.02046 L 257.45855,-227.22046 L 256.87106,-227.38296 L 256.25856,-227.53295 L 255.64607,-227.63295 L 255.02107,-227.72045 L 254.38357,-227.77045 L 253.74608,-227.78295 C 246.84612,-227.78295 241.24616,-222.18299 241.24616,-215.28303 C 241.24616,-208.38308 246.84612,-202.78311 253.74608,-202.78311 C 260.64603,-202.78311 266.246,-208.38308 266.246,-215.28303 z "
       style="font-style:normal;font-variant:normal;font-weight:normal;font-stretch:normal;letter-spacing:normal;word-spacing:normal;text-anchor:start;fill:black;fill-opacity:1;fill-rule:nonzero;stroke:black;stroke-width:0;stroke-linecap:butt;stroke-linejoin:miter;stroke-miterlimit:10.43299961;stroke-dasharray:none;stroke-dashoffset:0;stroke-opacity:1"
       id="path4052" />
    <path
       d="M 266.246,-190.28319 L 266.2335,-190.92069 L 266.1835,-191.55818 L 266.096,-192.18318 L 265.996,-192.79568 L 265.846,-193.40817 L 265.6835,-193.99567 L 265.4835,-194.58317 L 265.2585,-195.14566 L 265.00851,-195.69566 L 264.73351,-196.24565 L 264.43351,-196.75815 L 264.10851,-197.27065 L 263.75851,-197.75814 L 263.39602,-198.23314 L 262.99602,-198.68314 L 262.58352,-199.12064 L 262.14602,-199.53313 L 261.69603,-199.93313 L 261.22103,-200.29563 L 260.73353,-200.64563 L 260.22104,-200.97062 L 259.70854,-201.27062 L 259.15854,-201.54562 L 258.60855,-201.79562 L 258.04605,-202.02062 L 257.45855,-202.22062 L 256.87106,-202.38312 L 256.25856,-202.53311 L 255.64607,-202.63311 L 255.02107,-202.72061 L 254.38357,-202.77061 L 253.74608,-202.78311 C 246.84612,-202.78311 241.24616,-197.18315 241.24616,-190.28319 C 241.24616,-183.38324 246.84612,-177.78327 253.74608,-177.78327 C 260.64603,-177.78327 266.246,-183.38324 266.246,-190.28319 z "
       style="font-style:normal;font-variant:normal;font-weight:normal;font-stretch:normal;letter-spacing:normal;word-spacing:normal;text-anchor:start;fill:black;fill-opacity:1;fill-rule:nonzero;stroke:black;stroke-width:0;stroke-linecap:butt;stroke-linejoin:miter;stroke-miterlimit:10.43299961;stroke-dasharray:none;stroke-dashoffset:0;stroke-opacity:1"
       id="path4054" />
    <path
       d="M 266.246,-165.28335 L 266.2335,-165.92085 L 266.1835,-166.55834 L 266.096,-167.18334 L 265.996,-167.79584 L 265.846,-168.40833 L 265.6835,-168.99583 L 265.4835,-169.58333 L 265.2585,-170.14582 L 265.00851,-170.69582 L 264.73351,-171.24581 L 264.43351,-171.75831 L 264.10851,-172.27081 L 263.75851,-172.7583 L 263.39602,-173.2333 L 262.99602,-173.6833 L 262.58352,-174.1208 L 262.14602,-174.53329 L 261.69603,-174.93329 L 261.22103,-175.29579 L 260.73353,-175.64579 L 260.22104,-175.97078 L 259.70854,-176.27078 L 259.15854,-176.54578 L 258.60855,-176.79578 L 258.04605,-177.02078 L 257.45855,-177.22078 L 256.87106,-177.38328 L 256.25856,-177.53327 L 255.64607,-177.63327 L 255.02107,-177.72077 L 254.38357,-177.77077 L 253.74608,-177.78327 C 246.84612,-177.78327 241.24616,-172.18331 241.24616,-165.28335 C 241.24616,-158.3834 246.84612,-152.78343 253.74608,-152.78343 C 260.64603,-152.78343 266.246,-158.3834 266.246,-165.28335 z "
       style="font-style:normal;font-variant:normal;font-weight:normal;font-stretch:normal;letter-spacing:normal;word-spacing:normal;text-anchor:start;fill:black;fill-opacity:1;fill-rule:nonzero;stroke:black;stroke-width:0;stroke-linecap:butt;stroke-linejoin:miter;stroke-miterlimit:10.43299961;stroke-dasharray:none;stroke-dashoffset:0;stroke-opacity:1"
       id="path4056" />
    <path
       d="M 566.24408,-15.284313 L 566.23158,-15.921809 L 566.18158,-16.559304 L 566.09408,-17.1843 L 565.99408,-17.796797 L 565.84408,-18.409293 L 565.68158,-18.996789 L 565.48158,-19.584285 L 565.25658,-20.146781 L 565.00659,-20.696778 L 564.73159,-21.246774 L 564.43159,-21.759271 L 564.10659,-22.271768 L 563.75659,-22.759265 L 563.3941,-23.234262 L 562.9941,-23.684259 L 562.5816,-24.121756 L 562.1441,-24.534253 L 561.69411,-24.934251 L 561.21911,-25.296749 L 560.73161,-25.646746 L 560.21912,-25.971744 L 559.70662,-26.271742 L 559.15662,-26.546741 L 558.60663,-26.796739 L 558.04413,-27.021737 L 557.45663,-27.221736 L 556.86914,-27.384235 L 556.25664,-27.534234 L 555.64415,-27.634234 L 555.01915,-27.721733 L 554.38165,-27.771733 L 553.74416,-27.784233 C 546.8442,-27.784233 541.24424,-22.184268 541.24424,-15.284313 C 541.24424,-8.3843568 546.8442,-2.7843926 553.74416,-2.7843926 C 560.64411,-2.7843926 566.24408,-8.3843568 566.24408,-15.284313 z "
       style="font-style:normal;font-variant:normal;font-weight:normal;font-stretch:normal;letter-spacing:normal;word-spacing:normal;text-anchor:start;fill:white;fill-opacity:1;fill-rule:nonzero;stroke:white;stroke-width:0;stroke-linecap:butt;stroke-linejoin:miter;stroke-miterlimit:10.43299961;stroke-dasharray:none;stroke-dashoffset:0;stroke-opacity:1"
       id="path4058" />
    <path
       d="M 566.24408,-15.284313 L 566.23158,-15.921809 L 566.18158,-16.559304 L 566.09408,-17.1843 L 565.99408,-17.796797 L 565.84408,-18.409293 L 565.68158,-18.996789 L 565.48158,-19.584285 L 565.25658,-20.146781 L 565.00659,-20.696778 L 564.73159,-21.246774 L 564.43159,-21.759271 L 564.10659,-22.271768 L 563.75659,-22.759265 L 563.3941,-23.234262 L 562.9941,-23.684259 L 562.5816,-24.121756 L 562.1441,-24.534253 L 561.69411,-24.934251 L 561.21911,-25.296749 L 560.73161,-25.646746 L 560.21912,-25.971744 L 559.70662,-26.271742 L 559.15662,-26.546741 L 558.60663,-26.796739 L 558.04413,-27.021737 L 557.45663,-27.221736 L 556.86914,-27.384235 L 556.25664,-27.534234 L 555.64415,-27.634234 L 555.01915,-27.721733 L 554.38165,-27.771733 L 553.74416,-27.784233 C 546.8442,-27.784233 541.24424,-22.184268 541.24424,-15.284313 C 541.24424,-8.3843568 546.8442,-2.7843926 553.74416,-2.7843926 C 560.64411,-2.7843926 566.24408,-8.3843568 566.24408,-15.284313 z "
       style="font-style:normal;font-variant:normal;font-weight:normal;font-stretch:normal;letter-spacing:normal;word-spacing:normal;text-anchor:start;fill:none;fill-opacity:1;stroke:black;stroke-width:1.24999201;stroke-linecap:butt;stroke-linejoin:miter;stroke-miterlimit:10.43299961;stroke-dasharray:none;stroke-dashoffset:0;stroke-opacity:1"
       id="path4060" />
    <path
       d="M 566.24408,-40.284153 L 566.23158,-40.921649 L 566.18158,-41.559144 L 566.09408,-42.18414 L 565.99408,-42.796637 L 565.84408,-43.409133 L 565.68158,-43.996629 L 565.48158,-44.584125 L 565.25658,-45.146621 L 565.00659,-45.696618 L 564.73159,-46.246614 L 564.43159,-46.759111 L 564.10659,-47.271608 L 563.75659,-47.759105 L 563.3941,-48.234102 L 562.9941,-48.684099 L 562.5816,-49.121596 L 562.1441,-49.534093 L 561.69411,-49.934091 L 561.21911,-50.296589 L 560.73161,-50.646586 L 560.21912,-50.971584 L 559.70662,-51.271582 L 559.15662,-51.546581 L 558.60663,-51.796579 L 558.04413,-52.021577 L 557.45663,-52.221576 L 556.86914,-52.384075 L 556.25664,-52.534074 L 555.64415,-52.634074 L 555.01915,-52.721573 L 554.38165,-52.771573 L 553.74416,-52.784073 C 546.8442,-52.784073 541.24424,-47.184108 541.24424,-40.284153 C 541.24424,-33.384197 546.8442,-27.784233 553.74416,-27.784233 C 560.64411,-27.784233 566.24408,-33.384197 566.24408,-40.284153 z "
       style="font-style:normal;font-variant:normal;font-weight:normal;font-stretch:normal;letter-spacing:normal;word-spacing:normal;text-anchor:start;fill:white;fill-opacity:1;fill-rule:nonzero;stroke:white;stroke-width:0;stroke-linecap:butt;stroke-linejoin:miter;stroke-miterlimit:10.43299961;stroke-dasharray:none;stroke-dashoffset:0;stroke-opacity:1"
       id="path4062" />
    <path
       d="M 566.24408,-40.284153 L 566.23158,-40.921649 L 566.18158,-41.559144 L 566.09408,-42.18414 L 565.99408,-42.796637 L 565.84408,-43.409133 L 565.68158,-43.996629 L 565.48158,-44.584125 L 565.25658,-45.146621 L 565.00659,-45.696618 L 564.73159,-46.246614 L 564.43159,-46.759111 L 564.10659,-47.271608 L 563.75659,-47.759105 L 563.3941,-48.234102 L 562.9941,-48.684099 L 562.5816,-49.121596 L 562.1441,-49.534093 L 561.69411,-49.934091 L 561.21911,-50.296589 L 560.73161,-50.646586 L 560.21912,-50.971584 L 559.70662,-51.271582 L 559.15662,-51.546581 L 558.60663,-51.796579 L 558.04413,-52.021577 L 557.45663,-52.221576 L 556.86914,-52.384075 L 556.25664,-52.534074 L 555.64415,-52.634074 L 555.01915,-52.721573 L 554.38165,-52.771573 L 553.74416,-52.784073 C 546.8442,-52.784073 541.24424,-47.184108 541.24424,-40.284153 C 541.24424,-33.384197 546.8442,-27.784233 553.74416,-27.784233 C 560.64411,-27.784233 566.24408,-33.384197 566.24408,-40.284153 z "
       style="font-style:normal;font-variant:normal;font-weight:normal;font-stretch:normal;letter-spacing:normal;word-spacing:normal;text-anchor:start;fill:none;fill-opacity:1;stroke:black;stroke-width:1.24999201;stroke-linecap:butt;stroke-linejoin:miter;stroke-miterlimit:10.43299961;stroke-dasharray:none;stroke-dashoffset:0;stroke-opacity:1"
       id="path4064" />
    <path
       d="M 566.24408,-265.28271 L 566.23158,-265.92021 L 566.18158,-266.5577 L 566.09408,-267.1827 L 565.99408,-267.7952 L 565.84408,-268.40769 L 565.68158,-268.99519 L 565.48158,-269.58269 L 565.25658,-270.14518 L 565.00659,-270.69518 L 564.73159,-271.24517 L 564.43159,-271.75767 L 564.10659,-272.27017 L 563.75659,-272.75766 L 563.3941,-273.23266 L 562.9941,-273.68266 L 562.5816,-274.12016 L 562.1441,-274.53265 L 561.69411,-274.93265 L 561.21911,-275.29515 L 560.73161,-275.64515 L 560.21912,-275.97014 L 559.70662,-276.27014 L 559.15662,-276.54514 L 558.60663,-276.79514 L 558.04413,-277.02014 L 557.45663,-277.22014 L 556.86914,-277.38264 L 556.25664,-277.53263 L 555.64415,-277.63263 L 555.01915,-277.72013 L 554.38165,-277.77013 L 553.74416,-277.78263 C 546.8442,-277.78263 541.24424,-272.18267 541.24424,-265.28271 C 541.24424,-258.38276 546.8442,-252.78279 553.74416,-252.78279 C 560.64411,-252.78279 566.24408,-258.38276 566.24408,-265.28271 z "
       style="font-style:normal;font-variant:normal;font-weight:normal;font-stretch:normal;letter-spacing:normal;word-spacing:normal;text-anchor:start;fill:black;fill-opacity:1;fill-rule:nonzero;stroke:black;stroke-width:0;stroke-linecap:butt;stroke-linejoin:miter;stroke-miterlimit:10.43299961;stroke-dasharray:none;stroke-dashoffset:0;stroke-opacity:1"
       id="path4066" />
    <path
       d="M 566.24408,-240.28287 L 566.23158,-240.92037 L 566.18158,-241.55786 L 566.09408,-242.18286 L 565.99408,-242.79536 L 565.84408,-243.40785 L 565.68158,-243.99535 L 565.48158,-244.58285 L 565.25658,-245.14534 L 565.00659,-245.69534 L 564.73159,-246.24533 L 564.43159,-246.75783 L 564.10659,-247.27033 L 563.75659,-247.75782 L 563.3941,-248.23282 L 562.9941,-248.68282 L 562.5816,-249.12032 L 562.1441,-249.53281 L 561.69411,-249.93281 L 561.21911,-250.29531 L 560.73161,-250.64531 L 560.21912,-250.9703 L 559.70662,-251.2703 L 559.15662,-251.5453 L 558.60663,-251.7953 L 558.04413,-252.0203 L 557.45663,-252.2203 L 556.86914,-252.3828 L 556.25664,-252.53279 L 555.64415,-252.63279 L 555.01915,-252.72029 L 554.38165,-252.77029 L 553.74416,-252.78279 C 546.8442,-252.78279 541.24424,-247.18283 541.24424,-240.28287 C 541.24424,-233.38292 546.8442,-227.78295 553.74416,-227.78295 C 560.64411,-227.78295 566.24408,-233.38292 566.24408,-240.28287 z "
       style="font-style:normal;font-variant:normal;font-weight:normal;font-stretch:normal;letter-spacing:normal;word-spacing:normal;text-anchor:start;fill:black;fill-opacity:1;fill-rule:nonzero;stroke:black;stroke-width:0;stroke-linecap:butt;stroke-linejoin:miter;stroke-miterlimit:10.43299961;stroke-dasharray:none;stroke-dashoffset:0;stroke-opacity:1"
       id="path4068" />
  </g>
</svg>
